<svg width="24" height="24" viewBox="0 0 24 24" fill="none" xmlns="http://www.w3.org/2000/svg">
<path d="M12 24C14.7879 23.0545 17.0909 21.4788 18.6909 19.4182C20.2182 17.4303 21.0909 14.9818 21.0909 12.1455C21.0909 10.7879 21.0182 9.6 20.8 8.48485C20.6061 7.44243 20.3396 6.47273 19.9273 5.50303C18.8606 5.45455 18.1333 5.35758 17.5515 5.21213C16.9207 5.04243 16.3636 4.75152 15.7816 4.46061C14.8601 4 13.9634 3.5394 11.9995 3.5394C10.0359 3.5394 9.13891 4 8.21769 4.46061C7.63588 4.75152 7.0783 5.04243 6.448 5.21213C5.86618 5.38182 5.13891 5.47879 4.07224 5.50303C3.68485 6.49697 3.39394 7.44243 3.2 8.48485C2.98182 9.6 2.90909 10.7879 2.90909 12.1455C2.90909 14.9818 3.78182 17.4545 5.30909 19.4182C6.90909 21.4788 9.21212 23.0303 12 24Z" fill="white"/>
<path d="M7.22424 7.44243C7.27272 7.39394 7.29696 7.34546 7.29696 7.29697C7.29696 7.24849 7.29696 7.22424 7.29696 7.17576C7.29696 7.15152 7.27272 7.10303 7.24848 7.07879C7.22424 7.05455 7.17575 7.0303 7.12727 7.0303C7.07878 7.0303 7.0303 7.0303 7.00605 7.05455C6.95757 7.07879 6.90908 7.10303 6.8606 7.12727C6.81211 7.15152 6.76363 7.2 6.6909 7.24849L6.59393 7.32121L6.90908 7.70909L7.05454 7.58788C7.12727 7.53939 7.19999 7.49091 7.22424 7.44243Z" fill="#008863"/>
<path d="M8.41213 19.3212C8.36364 19.2727 8.3394 19.2485 8.29092 19.2242C8.24243 19.2 8.19395 19.1757 8.14546 19.1757C8.09698 19.1515 8.04849 19.1515 8.00001 19.1757C7.95152 19.1757 7.90304 19.2005 7.85455 19.2487C7.80607 19.297 7.75758 19.3454 7.73334 19.3939C7.68486 19.4667 7.68486 19.5151 7.66061 19.5879C7.66061 19.6606 7.66061 19.7091 7.66061 19.7576C7.68486 19.806 7.7091 19.8545 7.73334 19.8788C7.78183 19.9273 7.80607 19.9515 7.85455 19.9757C7.90304 20 7.95152 20.024 8.00001 20.024C8.04849 20.024 8.09698 20.024 8.14546 20.024C8.19395 19.9995 8.24243 19.9757 8.29092 19.951C8.3394 19.9028 8.36364 19.8783 8.41213 19.8056C8.46061 19.7326 8.46061 19.6596 8.48486 19.6114C8.48486 19.5631 8.48486 19.4902 8.48486 19.4419C8.46061 19.3939 8.43637 19.3697 8.41213 19.3212Z" fill="#008863"/>
<path d="M6.98182 18.4485C6.95757 18.4242 6.90909 18.3758 6.8606 18.3273L6.78788 18.2545L6.52121 18.5455L6.64242 18.6667C6.69091 18.7152 6.73939 18.7394 6.78788 18.7879C6.83636 18.8121 6.8606 18.8364 6.90909 18.8364C6.93333 18.8364 6.98182 18.8364 7.00606 18.8364C7.0303 18.8364 7.05454 18.8119 7.07879 18.7879C7.07879 18.7152 7.07879 18.6667 7.07879 18.6424C7.07879 18.6177 7.07879 18.5695 7.05454 18.5455C7.0303 18.497 7.00606 18.4727 6.98182 18.4485Z" fill="#008863"/>
<path d="M10.9818 6.03636C11.0545 6.03636 11.1273 6.01212 11.1757 6.01212C11.2242 6.01212 11.2727 5.98788 11.3212 5.96363C11.3454 5.93939 11.3697 5.91515 11.3939 5.89091C11.4182 5.86666 11.4182 5.81818 11.4182 5.76969C11.4182 5.72121 11.3939 5.69697 11.3697 5.67272C11.3454 5.64848 11.3212 5.62424 11.2485 5.62424C11.2 5.62424 11.1757 5.6 11.1273 5.62424C11.0788 5.62424 11.0303 5.62424 10.9576 5.62424L10.7394 5.64848L10.7879 6.08484L10.9818 6.03636Z" fill="#008863"/>
<path d="M8.55759 6.98182C8.60607 7.03031 8.65456 7.07879 8.72728 7.10304C8.77577 7.12728 8.8485 7.12728 8.92122 7.12728C8.99395 7.12728 9.06668 7.10304 9.11516 7.07879C9.18789 7.05455 9.23637 7.00607 9.28486 6.95758C9.33334 6.9091 9.38183 6.86061 9.40607 6.81213C9.43031 6.7394 9.45456 6.66667 9.45456 6.59395C9.45456 6.52122 9.43031 6.44849 9.40607 6.35152C9.35759 6.25455 9.33334 6.18182 9.26062 6.13334C9.21213 6.08485 9.1394 6.03637 9.09092 6.01213C9.04244 5.98788 8.96971 5.98788 8.89698 5.98788C8.82425 5.98788 8.75153 6.01213 8.70304 6.03637C8.65456 6.06061 8.58183 6.1091 8.53334 6.13334C8.48486 6.18182 8.46062 6.23031 8.41213 6.27879C8.38789 6.32728 8.36365 6.40001 8.36365 6.47273C8.36365 6.54546 8.38789 6.64243 8.41213 6.71516C8.46062 6.86061 8.5091 6.93334 8.55759 6.98182Z" fill="#008863"/>
<path d="M9.91516 19.8545C9.89092 19.8298 9.86667 19.8298 9.81819 19.806C9.7697 19.7818 9.74546 19.7818 9.69698 19.7576L9.52728 19.7091L9.40607 20.0485L9.55152 20.097C9.60001 20.1212 9.67273 20.1452 9.72122 20.1452C9.7697 20.1452 9.79395 20.1452 9.84243 20.1452C9.89092 20.1452 9.89092 20.1207 9.91516 20.097C9.9394 20.0722 9.96364 20.0485 9.96364 20.024C9.96364 19.9995 9.96364 19.9757 9.96364 19.9273C9.96364 19.903 9.9394 19.8788 9.91516 19.8545Z" fill="#008863"/>
<path d="M16.5576 19.3212L16.1454 19.006L16.2182 19.5151L16.5576 19.3212Z" fill="#008863"/>
<path d="M20.7273 13.0424C20.7515 12.7757 20.7515 12.4848 20.7515 12.2184C20.7515 12.0972 20.7515 11.976 20.7515 11.8548H16.9697C16.9455 11.5881 16.8727 11.3214 16.8243 11.0548C16.8 10.9091 16.7758 10.7879 16.7515 10.6424H20.7273C20.6061 8.79999 20.2424 7.24847 19.6121 5.69696C17.4788 5.64847 16.7515 5.28484 15.903 4.84847C14.9091 4.36362 14.0606 3.83029 11.9758 3.83029C9.86668 3.83029 9.01819 4.36362 8.0485 4.84847C7.17577 5.28484 6.47274 5.64847 4.33941 5.69696C3.68486 7.24847 3.34547 8.79999 3.22425 10.6424H7.22425C7.20001 10.7879 7.17577 10.9091 7.15153 11.0545C7.10304 11.3212 7.0788 11.5879 7.05456 11.8545H3.20001C3.20001 11.9757 3.20001 12.097 3.20001 12.2182C3.20001 12.4848 3.20001 12.7757 3.22425 13.0419H7.03031C7.03031 13.454 7.0788 13.8662 7.15153 14.254H3.36971C3.44244 14.6662 3.51516 15.0543 3.63638 15.4419H7.51516C7.68486 15.8783 7.90304 16.2657 8.16971 16.654H4.0485C5.38183 19.975 8.24244 22.3993 12.0485 23.6843C15.8303 22.3993 18.7152 19.975 20.0485 16.654H15.9273C16.194 16.2904 16.4121 15.8783 16.5818 15.4419H20.4606C20.5571 15.0536 20.6546 14.6417 20.7273 14.254H16.9455C17.0182 13.8662 17.0667 13.4785 17.0667 13.0419L20.7273 13.0424ZM17.8424 7.61211C18.0849 7.66059 18.303 7.85453 18.5215 8.1212C18.5944 8.21817 18.6672 8.33938 18.7394 8.43635C18.7879 8.53332 18.8364 8.72726 18.8851 8.89696L18.5697 9.13938C18.5455 8.94544 18.497 8.70302 18.4243 8.55756C18.4 8.48484 18.3515 8.43635 18.303 8.36362C18.2061 8.24241 18.0606 8.1212 17.9152 8.07272C17.8422 8.04847 17.7692 8.04847 17.697 8.07272C17.6243 8.09696 17.5515 8.1212 17.4788 8.16969C17.3333 8.26666 17.2611 8.41211 17.2611 8.55756C17.2611 8.77575 17.4788 9.11514 17.6247 9.28484L17.8672 9.11514L17.6975 8.87272L17.9399 8.70302L18.3763 9.38181L17.7944 9.81817C17.7215 9.76969 17.552 9.59999 17.4308 9.50302C17.3096 9.40605 17.2126 9.28484 17.1399 9.16362C16.9217 8.89696 16.8247 8.63029 16.8247 8.38787C16.8247 8.14544 16.9459 7.92726 17.1636 7.78181C17.3818 7.58787 17.6 7.53938 17.8424 7.61211ZM15.8788 6.10908L16.3152 7.46665L16.8727 6.61817L17.2849 6.86059L16.3879 8.26665L16.0243 8.02423L15.6121 6.6909L15.2 7.58787L14.7879 7.41817L15.4667 5.91514L15.8788 6.10908ZM14.8121 5.67272L14.3515 7.24847L13.8909 7.12726L14.3515 5.5515L14.8121 5.67272ZM12.1455 5.18787L13.9154 5.38181L13.8672 5.7212L13.2126 5.64847L13.0667 6.93332L12.5818 6.88484L12.7275 5.59999L12.073 5.52726L12.1455 5.18787ZM11.1273 5.28484C11.2485 5.28484 11.3455 5.26059 11.4424 5.28484C11.5394 5.28484 11.6121 5.30908 11.6849 5.33332C11.7576 5.35756 11.8303 5.40605 11.8788 5.45453C11.9273 5.50302 11.9515 5.57575 11.9515 5.67272C11.9515 5.79393 11.9273 5.8909 11.8788 5.96362C11.8303 6.03635 11.7333 6.13332 11.6121 6.18181C11.903 6.3515 12.0485 6.59393 12.194 6.86059L11.6364 6.88484C11.5394 6.6909 11.3455 6.49696 11.1273 6.32726L10.8606 6.3515L10.9091 6.95756L10.4243 7.00605L10.2788 5.35756L11.1273 5.28484ZM7.95153 6.30302C8.07274 6.08484 8.26668 5.91514 8.58183 5.79393C8.87274 5.67272 9.16365 5.62423 9.38183 5.69696C9.62425 5.76969 9.79395 5.91514 9.89092 6.15756C9.98789 6.39999 9.98789 6.61817 9.86668 6.83635C9.74547 7.05453 9.55153 7.22423 9.23638 7.34544C8.92122 7.46665 8.65456 7.51514 8.43637 7.44241C8.19395 7.36969 8.0485 7.22423 7.92728 6.98181C7.80607 6.73938 7.83031 6.5212 7.95153 6.30302ZM6.42425 9.43029C6.32728 9.57575 6.23032 9.67272 6.13335 9.76969C6.03638 9.86665 6.01213 9.8909 5.91516 9.96362L5.57577 9.74544C5.69698 9.67272 5.79395 9.62423 5.91516 9.52726C6.03638 9.45453 6.1091 9.35756 6.18183 9.26059C6.20607 9.23635 6.23032 9.21211 6.25456 9.16362C6.2788 9.11514 6.30304 9.0909 6.30304 9.04241C6.32728 8.99393 6.32728 8.96969 6.32728 8.94544C6.32728 8.9212 6.30304 8.89696 6.2788 8.87272C6.25456 8.84847 6.20607 8.84847 6.15759 8.87272C6.1091 8.89696 6.06062 8.9212 6.01213 8.96969C5.96365 9.01817 5.89092 9.0909 5.84244 9.13938C5.79395 9.18787 5.72122 9.26059 5.67274 9.30908C5.52728 9.43029 5.40607 9.47878 5.3091 9.50302C5.21213 9.52726 5.09092 9.47878 5.01819 9.43029C4.89698 9.33332 4.8485 9.18787 4.8485 9.01817C4.87274 8.82423 4.96971 8.63029 5.11516 8.41211C5.18789 8.31514 5.28486 8.19393 5.38183 8.1212C5.45456 8.04847 5.52728 7.97575 5.60001 7.92726L5.84244 8.16969C5.67274 8.26666 5.4788 8.43635 5.35759 8.60605C5.33335 8.63029 5.3091 8.67878 5.28486 8.70302C5.26062 8.7515 5.23638 8.77575 5.23638 8.82423C5.21213 8.87272 5.21213 8.89696 5.21213 8.9212C5.21213 8.94544 5.23638 8.96969 5.26062 8.99393C5.28486 9.01817 5.33335 9.01817 5.38183 8.99393C5.43032 8.96969 5.4788 8.9212 5.57577 8.84847C5.62425 8.79999 5.67274 8.7515 5.72122 8.70302C5.76971 8.65453 5.81819 8.60605 5.89092 8.55756C6.01213 8.46059 6.13335 8.38787 6.23031 8.38787C6.32728 8.38787 6.42425 8.38787 6.52122 8.46059C6.64244 8.55756 6.71516 8.70302 6.69092 8.89696C6.69092 8.96969 6.59395 9.18787 6.42425 9.43029ZM7.0788 8.67878L6.03638 7.41817L6.69092 6.86059C6.78789 6.78787 6.88486 6.71514 6.95759 6.66666C7.03032 6.61817 7.12728 6.59393 7.20001 6.56969C7.29698 6.54544 7.36971 6.54544 7.44244 6.56969C7.51516 6.59393 7.58789 6.64241 7.63638 6.71514C7.68486 6.76362 7.7091 6.83635 7.73334 6.90908C7.75759 6.98181 7.75759 7.05453 7.73334 7.12726C7.7091 7.22423 7.68486 7.3212 7.61213 7.41817C7.56365 7.51514 7.46668 7.58787 7.36971 7.68484L7.10304 7.90302L7.44244 8.31514L7.0788 8.67878ZM7.03031 19.1515C6.95759 19.1515 6.86062 19.1273 6.78789 19.103C6.71516 19.0788 6.61819 19.0063 6.54547 18.9333L6.35153 18.7151L6.06062 19.0303L5.76971 18.7636L6.66668 17.8182L7.17577 18.2788C7.2485 18.3515 7.29698 18.4242 7.34547 18.4727C7.41819 18.5694 7.46668 18.7394 7.44244 18.8606C7.44244 18.9333 7.39395 18.9818 7.34547 19.0303C7.29698 19.0788 7.2485 19.103 7.20001 19.1273C7.15153 19.1273 7.10304 19.1515 7.03031 19.1515ZM8.33941 20.3394C8.14547 20.3636 7.95153 20.3151 7.7091 20.1939C7.49092 20.0727 7.34547 19.903 7.27274 19.7336C7.20001 19.5641 7.22425 19.3699 7.32122 19.2005C7.41819 19.0063 7.56365 18.9096 7.75759 18.8851C7.95153 18.8606 8.14547 18.9096 8.36365 19.0308C8.58183 19.152 8.72728 19.3217 8.80001 19.4911C8.87274 19.6606 8.8485 19.8548 8.75153 20.049C8.6788 20.1939 8.53334 20.3151 8.33941 20.3394ZM10.3758 20.1212C10.3515 20.2182 10.303 20.2909 10.2303 20.3151C10.1576 20.3636 10.0606 20.3879 9.96365 20.3879C10.0849 20.5576 10.2061 20.8 10.2546 21.0669L9.79395 20.9212C9.76971 20.7273 9.67274 20.5333 9.55153 20.3396L9.35759 20.2667L9.21213 20.7273L8.82425 20.606L9.23638 19.3697L9.89092 19.5874C9.98789 19.6121 10.0606 19.6359 10.1091 19.6843C10.1818 19.7086 10.2303 19.7571 10.2788 19.8056C10.3273 19.8538 10.3515 19.902 10.3758 19.951C10.4 20 10.4 20.0485 10.3758 20.1212ZM11.903 20.1212L11.3697 20.0727L11.2727 21.1151L10.9333 21.0909L11.0303 20.0485L10.497 20L10.5212 19.7333L11.9273 19.8545L11.903 20.1212ZM13.4788 20.9454C13.3576 21.0424 13.1879 21.1151 12.9697 21.1151C12.7273 21.1399 12.5576 21.1151 12.4121 21.0424C12.2909 20.9697 12.2182 20.8485 12.194 20.6788L12.1212 19.8303L12.5091 19.806L12.5818 20.606C12.5818 20.703 12.6301 20.7757 12.6783 20.8C12.7268 20.8485 12.8243 20.8485 12.9207 20.8485C13.0177 20.8485 13.1149 20.8 13.1632 20.7757C13.2116 20.7273 13.2361 20.6545 13.2116 20.5576L13.1394 19.7333L13.5515 19.6848L13.6243 20.5333C13.6485 20.703 13.6 20.8485 13.4788 20.9454ZM15.3455 20.5333C15.2485 20.5818 15.1273 20.6303 15.0061 20.6788C14.7389 20.7515 14.5212 20.7515 14.327 20.7033C14.1329 20.6303 14.0116 20.4853 13.9634 20.2914C13.9152 20.097 13.9394 19.903 14.0364 19.7576C14.1576 19.5879 14.3515 19.4667 14.6177 19.3939C14.7147 19.3697 14.8119 19.3454 14.9086 19.3212C15.0053 19.2967 15.1266 19.2967 15.2478 19.3212L15.3445 19.6121C15.2233 19.5874 15.0536 19.5636 14.9324 19.5636C14.8841 19.5636 14.8112 19.5879 14.7629 19.5879C14.6909 19.6121 14.6182 19.6363 14.5697 19.6848C14.4732 19.7576 14.4003 19.8545 14.3758 19.9757C14.3758 20.024 14.3758 20.097 14.4003 20.1697C14.4485 20.3151 14.5215 20.4121 14.6427 20.4364C14.8121 20.5091 15.0793 20.4364 15.2487 20.3636L15.1758 20.1212L14.9576 20.1939L14.8849 19.9515L15.4662 19.7818L15.6604 20.3879C15.5636 20.4121 15.4667 20.4606 15.3455 20.5333ZM16.9939 17.9636L17.697 18.7394L18.2546 18.2303L18.4243 18.4242L17.6 19.2L16.7033 18.2303L16.9939 17.9636ZM16.194 18.5939L17.3576 19.4179L16.9939 19.6364L16.7515 19.4667L16.2424 19.7576L16.2667 20.0485L15.903 20.2667L15.7576 18.8364L16.194 18.5939ZM15.5152 16.7273C14.6909 17.7939 13.503 18.5939 12.0485 19.0788H11.9758C10.5212 18.5939 9.33334 17.7939 8.5091 16.7273C7.7091 15.7091 7.27274 14.4242 7.27274 12.9697C7.27274 12.2909 7.32122 11.6848 7.41819 11.1273C7.51516 10.5697 7.68486 10.0364 7.90304 9.50302L7.92728 9.43029C8.36365 9.40605 8.80001 9.40605 9.21213 9.28484C9.50304 9.21211 9.76971 9.06666 10.0364 8.94544C10.5212 8.70302 10.9818 8.46059 12.0243 8.46059C13.0667 8.46059 13.5273 8.70302 14.0121 8.94544C14.279 9.0909 14.5455 9.21211 14.8364 9.28484C15.2485 9.40605 15.6849 9.40605 16.1212 9.43029L16.1455 9.50302C16.3636 10.0364 16.5091 10.5454 16.6303 11.1273C16.7273 11.6848 16.7763 12.2909 16.7763 12.9697C16.7515 14.4485 16.2909 15.7091 15.5152 16.7273Z" fill="#008863"/>
<path d="M15.903 9.67273C15.3699 9.64849 15.0063 9.6 14.7394 9.52728C14.4242 9.45455 14.1578 9.30909 13.8667 9.16364C13.406 8.92121 12.9697 8.70303 12 8.70303C11.0303 8.70303 10.5697 8.92121 10.1333 9.16364C9.84241 9.30909 9.57574 9.45455 9.26059 9.52728C8.96968 9.6 8.60605 9.64849 8.09695 9.67273C7.90302 10.1576 7.75756 10.6424 7.66059 11.1515C7.56362 11.7091 7.51514 12.2909 7.51514 12.9697C7.51514 14.3758 7.9515 15.5879 8.70302 16.5818C9.47877 17.5998 10.6182 18.3753 12 18.8364C13.3818 18.3515 14.5212 17.5998 15.297 16.5818C16.0485 15.6121 16.4848 14.3758 16.4848 12.9697C16.4848 12.2909 16.4363 11.7091 16.3394 11.1515C16.2182 10.6182 16.097 10.1576 15.903 9.67273Z" fill="#008863"/>
<path d="M6.32728 3.66059C6.49697 3.66059 7.12728 3.68483 7.63637 3.53938C8.02425 3.44241 8.38788 3.19998 8.29091 2.9818C8.21818 2.78786 7.85455 2.78786 7.41818 2.88483C6.88485 3.00604 6.32728 2.95756 6.15758 2.88483C5.9394 2.78786 5.7697 2.61817 5.69697 2.39998C5.62425 2.15756 5.72122 1.84241 5.9394 1.57574C6.15758 1.33332 6.49697 1.11514 6.95758 0.969681C7.39394 0.799984 7.80606 0.727257 8.26667 0.678772L8.55758 1.28483C8.31515 1.28483 8.02425 1.28483 7.70909 1.35756C7.39394 1.40604 7.05455 1.52726 6.86061 1.69695C6.69091 1.86665 6.76364 2.10907 7.03031 2.08483C7.17576 2.06059 7.3697 2.06059 7.51515 2.03635C7.92728 1.98786 8.36364 1.93938 8.77576 2.06059C9.6 2.30301 9.38182 3.07877 8.89697 3.53938C8.70303 3.70907 8.48485 3.85453 8.29091 3.92726C7.78182 4.16968 7.2 4.24241 6.66667 4.29089L6.32728 3.66059Z" fill="#008863"/>
<path d="M13.7939 0.290909C13.5757 0.193939 13.3333 0.121212 13.0667 0.0727273C12.8242 0.0242424 12.5576 0 12.2667 0C11.9277 0 11.5879 0.0484848 11.2727 0.121212C10.7636 0.266667 10.1818 0.533333 9.8909 0.993939C9.76969 1.18788 9.69696 1.40606 9.69696 1.62424C9.69696 1.89091 9.76969 2.13333 9.93938 2.35152C10.2788 2.81212 10.8848 3.05455 11.4182 3.17576C11.6848 3.22424 11.9515 3.24848 12.2424 3.24848C12.5091 3.24848 12.7757 3.22424 13.0182 3.17576C13.2606 3.12727 13.5757 3.00606 13.7939 2.90909V2.15758C13.3333 2.4 12.8242 2.54545 12.2909 2.54545C11.7091 2.54545 10.8364 2.35152 10.8364 1.6C10.8364 0.872727 11.7333 0.678788 12.2909 0.678788C12.7757 0.678788 13.3573 0.8 13.7454 1.04242V0.290909H13.7939Z" fill="#008863"/>
<path d="M15.5151 3.75758L15.8788 2.61819L16.703 2.88485C16.9697 2.95758 17.4056 3.03031 17.7939 2.90909C18.327 2.71515 18.4965 2.13334 18.1576 1.67273C18.0116 1.47879 17.8182 1.33334 17.6242 1.23637C17.4061 1.1394 17.0182 1.01819 16.6301 0.896973L15.4424 0.509094L14.5212 3.44243L15.5151 3.75758ZM17.3333 2.10909C17.2606 2.35152 16.7758 2.30303 16.6061 2.25455L16.0485 2.08485L16.2667 1.40606L16.897 1.6C17.1151 1.64849 17.4303 1.84243 17.3333 2.10909Z" fill="#008863"/>
<path d="M14.9091 11.3697C14.9333 11.3939 14.9818 11.4182 15.0545 11.4182C15.1515 11.4182 15.2727 11.3939 15.3217 11.3697C15.3707 11.3454 15.4182 11.3212 15.4671 11.3212C15.4429 11.3212 15.3707 11.3212 15.3217 11.3454C15.2247 11.3697 15.0063 11.3454 15.0063 11.2242C15.0063 11.2242 15.0063 11.2242 15.0308 11.2242C15.1035 11.2485 15.1765 11.2727 15.2732 11.2727C15.3459 11.2727 15.3944 11.2485 15.4429 11.2242C15.4911 11.2 15.5156 11.1757 15.5884 11.1757C15.5156 11.1273 15.4429 11.1757 15.3459 11.1757C15.2732 11.1757 15.2247 11.1515 15.1765 11.1273C15.152 11.103 15.1282 11.103 15.0798 11.0788C15.007 11.0545 14.9101 11.0303 14.8373 11.0303C14.7888 11.0303 14.7161 11.0545 14.6676 11.0788C14.6191 11.103 14.5949 11.1515 14.5707 11.2C14.4 11.1757 14.2788 11.2242 14.1576 11.297C14.0364 11.3697 13.9394 11.4909 13.8667 11.6364C13.7697 11.8303 13.7697 12.0242 13.7939 12.2424C13.8182 12.4364 13.9151 12.6303 14.0116 12.8242C14.2061 13.1879 14.3273 13.4303 14.4 13.6C14.4727 13.7694 14.4965 13.8907 14.4965 14.0366C14.4965 14.1331 14.4722 14.2305 14.4238 14.3033C14.3753 14.376 14.3025 14.4487 14.2058 14.473C14.1091 14.5214 14.0116 14.5214 13.9151 14.4972C13.7939 14.473 13.6727 14.4005 13.5515 14.2793C13.4788 14.206 13.3576 14.0121 13.2606 13.7939C13.1636 13.6242 13.0909 13.4303 13.0909 13.3333C13.0667 13.1636 13.0667 12.9212 13.0667 12.6788C13.0667 12.6545 13.0667 12.6303 13.0667 12.582C13.0182 12.6303 12.9937 12.655 12.9697 12.7033C12.9457 12.7515 12.9212 12.8245 12.9212 12.8974C12.9212 12.8974 12.9212 12.8974 12.897 12.8974C12.8485 12.8485 12.8 12.7515 12.8 12.6788C12.7758 12.582 12.8 12.4848 12.8245 12.3636C12.8727 12.2182 12.8974 12.097 12.8974 11.9757C12.8974 11.8545 12.8727 11.7333 12.7762 11.6606V11.6364C12.8245 11.6364 12.8974 11.6848 12.9457 11.7333C12.9939 11.7818 13.0424 11.8303 13.0669 11.903C13.0914 11.9515 13.0914 12 13.1151 12.0727C13.1636 12.2667 13.2121 12.4608 13.4305 12.4848C13.3093 12.3636 13.3093 12.1454 13.3093 11.9515C13.3093 11.8545 13.3093 11.7576 13.3093 11.6606C13.2848 11.5394 13.2364 11.4667 13.1879 11.3939C13.1149 11.3212 13.0182 11.297 12.9454 11.297C12.9454 11.297 12.9454 11.297 12.9454 11.2727C12.9697 11.2485 12.9937 11.2242 12.9937 11.2C13.0182 11.1757 13.0667 11.1515 13.1151 11.1515C13.1636 11.1515 13.1881 11.1515 13.2364 11.1757C13.2611 11.2 13.2848 11.2 13.2848 11.2242C13.3333 11.2727 13.3576 11.3212 13.3818 11.3939C13.4303 11.5151 13.503 11.6364 13.6242 11.6606C13.5758 11.5879 13.5758 11.5151 13.5758 11.4182C13.5758 11.297 13.5515 11.1757 13.4545 11.006C13.4061 10.9333 13.3576 10.8848 13.2848 10.8364C13.2121 10.7879 13.1394 10.7879 13.0424 10.7879C13.0424 10.7879 13.0182 10.7879 13.0424 10.7636C13.0669 10.7151 13.1151 10.6667 13.1636 10.6424C13.2121 10.6182 13.2606 10.6182 13.3093 10.6182C13.4305 10.6424 13.4788 10.7151 13.5518 10.7879C13.6 10.8364 13.6247 10.9091 13.6974 10.9333C13.673 10.8848 13.649 10.8364 13.649 10.7879C13.6247 10.7394 13.6247 10.6667 13.6247 10.5939C13.6247 10.5212 13.5762 10.4485 13.5278 10.4C13.455 10.3515 13.3823 10.303 13.2853 10.303C13.2371 10.303 13.2126 10.303 13.1641 10.3273C13.1159 10.3273 13.0676 10.3515 13.0187 10.3757C13.0187 10.3757 13.0187 10.3757 12.9939 10.3757C12.9939 10.3273 12.9939 10.2788 13.0187 10.2303C13.0429 10.206 13.0669 10.1818 13.0914 10.1576C13.1159 10.1333 13.1641 10.1333 13.2126 10.1333C13.3093 10.1333 13.4305 10.1576 13.5278 10.206C13.5278 10.1576 13.5035 10.1091 13.4795 10.0848C13.4313 10.0364 13.4065 10.0121 13.3338 10.0121C13.2371 9.98787 13.1399 9.98787 13.0429 9.98787C12.9464 9.98787 12.849 9.98787 12.7762 9.96362V9.93938C12.8727 9.91514 12.9702 9.84241 13.0914 9.74544C12.8734 9.76968 12.7278 9.7212 12.5821 9.69696C12.4126 9.64847 12.2429 9.59999 12.0005 9.76968C11.9278 9.74544 11.855 9.74544 11.7823 9.7212C11.7096 9.7212 11.6611 9.7212 11.6126 9.7212C11.5641 9.7212 11.5156 9.74544 11.5156 9.76968C11.5156 9.79393 11.4914 9.79393 11.4914 9.81817C11.4914 9.84241 11.4914 9.84241 11.5156 9.86665C11.5399 9.8909 11.5641 9.91514 11.6126 9.93938C11.6611 9.93938 11.7338 9.96362 11.8065 9.96362C11.8793 9.96362 11.9762 9.96362 12.0974 9.93938C12.0974 9.93938 12.0974 9.93938 12.0974 9.96362C12.0732 10.0121 11.9762 10.0364 11.9035 10.0848C11.8308 10.1091 11.7581 10.1333 11.7096 10.1576C11.7096 10.1576 11.7096 10.1576 11.6853 10.1576C11.6368 10.0848 11.5641 10.0364 11.4671 10.0364C11.3702 10.0364 11.2247 10.0606 11.0308 10.1091L10.9818 10.1818C10.9576 10.206 10.9576 10.2303 10.9818 10.2303C11.0061 10.2545 11.0303 10.2545 11.103 10.2545C11.1273 10.2545 11.1273 10.2545 11.1515 10.2545V10.2788C11.103 10.2788 11.0788 10.303 11.0545 10.3515C11.0303 10.3757 11.0303 10.4 11.0303 10.4242C11.0303 10.4485 11.0303 10.4727 11.0545 10.497C11.0788 10.5212 11.103 10.5454 11.1515 10.5697C11.3212 10.4242 11.5151 10.3757 11.6848 10.4C11.7333 10.4 11.8061 10.4242 11.8303 10.4485C11.8788 10.4727 11.903 10.497 11.9515 10.5212C12 10.5697 12.0242 10.6424 12 10.6909C11.9758 10.7879 11.9515 10.8606 11.8303 10.8848C11.7333 10.9091 11.5636 10.9091 11.297 10.8606C11.2727 10.9091 11.297 10.9818 11.3212 11.0303C11.3697 11.103 11.4424 11.1515 11.5394 11.2C11.6121 11.1515 11.6848 11.103 11.7333 11.0545C11.8061 11.0303 11.8545 11.006 11.903 11.006C11.9273 11.006 11.9515 11.006 11.9515 11.0303C11.9758 11.0303 11.9758 11.0545 11.9758 11.0788C11.9758 11.103 11.9758 11.1273 11.9758 11.1273C11.9758 11.1515 11.9515 11.2 11.9273 11.2242C11.8545 11.297 11.7091 11.3454 11.5879 11.3939C11.5394 11.4182 11.5151 11.4182 11.4667 11.4424C11.3697 11.4909 11.2727 11.5151 11.2 11.5636C11.1273 11.6121 11.103 11.6364 11.0788 11.7091C11.1273 11.7091 11.2 11.7091 11.2485 11.7091C11.3697 11.7091 11.4667 11.7091 11.6364 11.6606C11.6121 11.7818 11.4182 11.8545 11.2 11.9273C11.103 11.9515 11.0061 12 10.9091 12.0485C10.8364 12.097 10.7394 12.1452 10.6909 12.2182C10.6424 12.2909 10.5939 12.3876 10.5697 12.4848C10.6182 12.4848 10.6667 12.4848 10.7394 12.4606C10.8121 12.4364 10.9091 12.3879 11.0061 12.3151C11.0545 12.2909 11.103 12.2667 11.1515 12.2667C11.2485 12.2424 11.3455 12.2184 11.4909 12.097H11.5151C11.4909 12.1697 11.4667 12.2424 11.4424 12.2909C11.3939 12.3394 11.3454 12.4121 11.297 12.4606C11.2485 12.5088 11.1273 12.5333 11.0303 12.5571C11.0061 12.5571 10.9818 12.5571 10.9576 12.5818C10.8606 12.606 10.7879 12.63 10.7151 12.63C10.6424 12.63 10.5939 12.6056 10.5697 12.5818C10.4485 12.63 10.3273 12.703 10.1818 12.7995C10.1333 12.8242 10.1091 12.848 10.0606 12.8725C9.96363 12.9454 9.86666 12.9937 9.76969 13.0182C9.67272 13.0667 9.57575 13.0909 9.45454 13.0909C9.30909 13.0909 9.18787 13.0424 9.0909 12.9697C8.99393 12.9212 8.89697 12.8727 8.8 12.8485C8.75151 12.8485 8.72727 12.8727 8.70303 12.897C8.67878 12.9212 8.65454 12.9697 8.65454 13.0182C8.67878 13.0182 8.72727 13.0182 8.75151 13.0182H8.77575C8.82424 13.0182 8.87272 13.0182 8.89697 13.0424C8.92121 13.0669 8.94545 13.0909 8.96969 13.1394V13.1636C8.89697 13.1636 8.72727 13.1636 8.6303 13.2121C8.53333 13.2606 8.4606 13.3333 8.53333 13.503C8.53333 13.4785 8.55757 13.4545 8.55757 13.4545C8.55757 13.4303 8.58181 13.4303 8.60606 13.406C8.6303 13.406 8.67878 13.3818 8.70303 13.3818C8.82424 13.3333 8.87272 13.3091 8.96969 13.4303V13.4545C8.94545 13.4545 8.92121 13.4545 8.92121 13.4545C8.82424 13.4788 8.75151 13.5273 8.72727 13.5757C8.67878 13.6242 8.67878 13.697 8.67878 13.7697C8.67878 13.7942 8.67878 13.7942 8.67878 13.8182C8.72727 13.7697 8.77575 13.7697 8.8 13.7697C8.82424 13.7697 8.84848 13.7454 8.84848 13.7454C8.87272 13.721 8.89697 13.721 8.89697 13.697C8.96969 13.6485 9.01818 13.6 9.23636 13.5515C9.28484 13.5268 9.30909 13.5268 9.35757 13.503C9.45454 13.4785 9.52727 13.4303 9.62424 13.4303C9.69697 13.4303 9.79394 13.4545 9.86666 13.4785C9.93939 13.503 10.0364 13.5268 10.1333 13.5515C10.1091 13.503 10.0848 13.4545 10.0364 13.4303C9.98787 13.3818 9.93939 13.3576 9.86666 13.3333C9.86666 13.3333 9.86666 13.3333 9.86666 13.3091C9.93939 13.2361 10.0364 13.2361 10.1091 13.2606C10.2061 13.2848 10.2788 13.3091 10.3758 13.3573C10.497 13.4056 10.5697 13.4785 10.6667 13.4785C10.7636 13.4785 10.8606 13.4785 10.9818 13.4056C10.8606 13.3813 10.7879 13.3091 10.7394 13.2601C10.6667 13.1879 10.5697 13.1151 10.4242 13.1394C10.4242 13.1394 10.4242 13.1394 10.4242 13.1149C10.4485 13.0667 10.497 13.0419 10.5454 13.0182C10.5939 12.9937 10.6424 12.9937 10.7151 12.9937C10.7879 12.9937 10.8848 13.0419 11.0061 13.1149C11.1758 13.2116 11.3454 13.3091 11.5394 13.3091C11.5394 13.3091 11.5394 13.3091 11.5394 13.3333C11.4909 13.3818 11.4182 13.4303 11.3454 13.4545C11.3697 13.503 11.4182 13.5757 11.4909 13.6485C11.5636 13.7212 11.6606 13.7942 11.7333 13.8424C11.8061 13.8909 11.903 13.9154 12 13.9636C12.097 13.9884 12.1939 14.0121 12.3394 14.0366C12.4848 14.0611 12.6061 14.1096 12.6545 14.1578C12.7273 14.206 12.7273 14.2545 12.703 14.3035C12.7513 14.328 12.7273 14.4002 12.703 14.4732C12.6788 14.5212 12.6545 14.5697 12.6061 14.6182C12.5818 14.6667 12.5333 14.7151 12.5091 14.7879C12.4364 14.9091 12.4364 15.0545 12.4364 15.2242V15.2485C12.4364 15.2967 12.4848 15.345 12.5333 15.4179C12.5818 15.4909 12.6301 15.5391 12.6788 15.5874L12.703 15.6121C12.8242 15.7576 12.9207 15.8545 12.897 16.1212C12.9937 16.0485 13.0909 16.0242 13.1636 16.0242C13.2121 16.0242 13.2606 16.0242 13.3093 16.0727C13.3338 16.0972 13.3576 16.1454 13.3823 16.1939C13.4065 16.2667 13.3823 16.3879 13.3576 16.5091C13.3091 16.606 13.2606 16.703 13.1879 16.7757C13.1151 16.8485 13.0424 16.9454 12.9697 16.9939C12.897 17.0187 12.8 16.9939 12.7273 16.9939C12.6061 16.9697 12.4848 16.9457 12.4121 17.0424C12.3879 17.0667 12.3879 17.0909 12.3636 17.1151C12.3636 17.1399 12.3636 17.1881 12.3636 17.2364C12.4121 17.2364 12.4606 17.2364 12.5333 17.2121C12.6545 17.1879 12.7758 17.1636 12.8242 17.2606C12.7995 17.2848 12.7758 17.3091 12.7513 17.3333C12.7268 17.3576 12.703 17.3818 12.6783 17.406C12.6541 17.4545 12.6301 17.5273 12.6056 17.6242V17.6485C12.6301 17.6485 12.6783 17.6485 12.7023 17.6485C12.799 17.6485 12.8965 17.6485 12.9692 17.5757C12.9937 17.5515 13.0177 17.5273 13.0419 17.503C13.0904 17.4545 13.1389 17.3818 13.1879 17.3818C13.1879 17.4303 13.1879 17.4545 13.2121 17.4785C13.2364 17.5515 13.2364 17.5997 13.1879 17.6965C13.2844 17.6965 13.3818 17.672 13.4545 17.6237C13.503 17.5753 13.5515 17.5268 13.5515 17.4778C13.5515 17.4296 13.5268 17.3813 13.5268 17.3324C13.5025 17.2596 13.4785 17.1869 13.5025 17.0899C13.5268 17.0172 13.5508 16.9445 13.5753 16.896C13.5998 16.8475 13.648 16.799 13.6965 16.7748C13.7692 16.7503 13.8422 16.702 13.8904 16.6536C13.9389 16.6051 13.9874 16.5566 14.0116 16.4839C13.9874 16.4839 13.9389 16.5081 13.9151 16.5081C13.8667 16.5081 13.8182 16.5081 13.7939 16.5328C13.7939 16.5328 13.7939 16.5328 13.7692 16.5328C13.745 16.5081 13.745 16.4599 13.745 16.4359C13.745 16.4119 13.7692 16.3631 13.7932 16.3147C13.8177 16.2904 13.8662 16.2419 13.9144 16.2182C13.9636 16.1939 13.9879 16.1697 14.0121 16.1454C14.0121 16.1454 14.0366 16.1454 14.0606 16.1454C14.1091 16.1212 14.2303 16.0972 14.4 15.9515C14.4482 15.903 14.4965 15.8303 14.4965 15.7818C14.4965 15.7336 14.4965 15.6606 14.4482 15.6124C14.3753 15.758 14.2303 15.8065 14.1328 15.8548C14.0606 15.8788 13.9879 15.903 13.9636 15.9515H13.9394C13.9151 15.8788 13.9394 15.7818 13.9636 15.7091C14.0121 15.6364 14.0848 15.5636 14.1578 15.5151C14.1823 15.5151 14.2061 15.4909 14.2308 15.4667C14.4485 15.3454 14.6427 15.2487 14.6187 14.9818C14.5459 15.0545 14.4492 15.0788 14.401 15.103C14.3525 15.103 14.304 15.103 14.255 15.103C14.2068 15.0788 14.1823 15.0545 14.1585 15.0303C14.1101 14.9818 14.0856 14.9091 14.0856 14.8364V14.8121C14.2545 14.8364 14.4 14.8364 14.5454 14.7879C14.6424 14.7394 14.7394 14.6667 14.7879 14.5697C14.7394 14.5944 14.7151 14.6182 14.6667 14.6427C14.6182 14.6671 14.5697 14.6427 14.5212 14.6182C14.5212 14.6182 14.5212 14.6182 14.5212 14.5939C14.6667 14.5212 14.7636 14.4242 14.8119 14.327C14.8848 14.2058 14.9086 14.0846 14.9331 13.9389C14.9331 13.8662 14.9331 13.7932 14.9086 13.721C14.8841 13.648 14.8601 13.5515 14.8119 13.4785C14.7636 13.406 14.7394 13.3333 14.6909 13.2606C14.6424 13.1879 14.5939 13.0909 14.5454 13.0182C14.4727 12.897 14.3758 12.7513 14.303 12.63C14.2303 12.5088 14.1576 12.3631 14.1333 12.2419C14.0848 12.0965 14.0606 11.9268 14.0848 11.7813C14.1096 11.6359 14.1578 11.5147 14.2545 11.4177C14.303 11.3692 14.3758 11.2965 14.4485 11.2722C14.5214 11.248 14.5944 11.2237 14.6667 11.248C14.6424 11.3207 14.6424 11.3934 14.6667 11.4419C14.6909 11.5389 14.7879 11.6116 14.8848 11.6116C15.0543 11.6359 15.1755 11.5874 15.3212 11.5389C15.3939 11.5147 15.4424 11.4904 15.5151 11.4662C15.4424 11.4419 15.3939 11.4662 15.3212 11.4662C15.2727 11.4662 15.2242 11.4904 15.1755 11.4662C15.1273 11.4424 15.0788 11.4182 15.0788 11.3697C14.8848 11.3939 14.8848 11.3939 14.9091 11.3697C14.9091 11.3697 14.8848 11.3697 14.9091 11.3697ZM12.2424 12.4606C12.3151 12.4121 12.3879 12.3394 12.4121 12.2424C12.4364 12.1697 12.4364 12.0727 12.4121 11.9757C12.4121 11.9757 12.4364 11.9515 12.4364 11.9757C12.5333 12.1454 12.5576 12.2909 12.5333 12.4121C12.4848 12.5333 12.4121 12.63 12.2664 12.703C12.1939 12.7515 12.1212 12.7515 12.0485 12.7515C11.9515 12.7762 11.8545 12.7762 11.7333 12.8727H11.7091C11.7576 12.7273 11.903 12.655 12.0485 12.5576C12.097 12.5333 12.1697 12.5091 12.2424 12.4606ZM11.0788 12.606C11.1273 12.5576 11.2242 12.4848 11.3212 12.4606C11.3697 12.4359 11.4182 12.4121 11.4909 12.3876C11.6848 12.3147 11.8303 12.2419 11.9273 11.9995H11.9515C12 12.1452 12 12.2664 11.9515 12.3631C11.903 12.4844 11.8061 12.5571 11.6848 12.6056C11.5636 12.654 11.4667 12.654 11.3939 12.6783C11.297 12.703 11.2 12.703 11.0788 12.7515H11.0545C11.0061 12.6788 11.0303 12.6545 11.0788 12.606ZM11.2242 13.0424C11.1515 12.9939 11.103 12.9454 11.0303 12.9454V12.9212C11.2242 12.8245 11.3697 12.9212 11.5151 13.0182C11.5636 13.0667 11.6364 13.0909 11.7091 13.1149V13.1394C11.4667 13.2364 11.3454 13.1394 11.2242 13.0424ZM11.4182 13.503C11.4182 13.503 11.4182 13.4788 11.4182 13.503C11.4909 13.503 11.5636 13.5273 11.6121 13.5515C11.6848 13.5515 11.7576 13.5757 11.8303 13.5515C11.9273 13.5515 12.0242 13.5268 12.1212 13.503C12.2182 13.4785 12.3151 13.4545 12.3879 13.406C12.3879 13.406 12.4126 13.406 12.4126 13.4305C12.3636 13.503 12.2909 13.5757 12.2182 13.6C12.1212 13.6485 12.0242 13.6727 11.9273 13.6727C11.8303 13.6727 11.7576 13.648 11.6606 13.6242C11.5394 13.6 11.4667 13.5515 11.4182 13.503ZM12.2667 13.9151C12.1702 13.9151 12.0727 13.9151 12 13.8667C11.9273 13.8422 11.8545 13.7939 11.8061 13.7454V13.7212C11.9515 13.7459 12.0727 13.7697 12.2424 13.7459C12.4121 13.7459 12.5576 13.7212 12.7273 13.673C12.7273 13.673 12.7515 13.6974 12.7273 13.6974C12.703 13.6974 12.6788 13.7219 12.6788 13.7459C12.5818 13.8182 12.4848 13.9151 12.2667 13.9151ZM12.8 15.7091C12.8 15.7091 12.7758 15.7091 12.8 15.7091C12.7273 15.5879 12.6788 15.4911 12.6303 15.4182C12.5818 15.3212 12.5091 15.2485 12.5091 15.1273C12.5091 15.0543 12.5091 14.9576 12.5576 14.8601C12.5821 14.7636 12.6303 14.6907 12.7033 14.6177H12.7278C12.7033 14.6907 12.7033 14.7389 12.6793 14.8119C12.6793 14.8848 12.6793 14.9576 12.6793 15.006C12.6793 15.1515 12.7278 15.2237 12.7762 15.3212C12.7758 15.4424 12.8242 15.5394 12.8 15.7091Z" fill="#F2BE4B"/>
<path d="M8.99393 11.1273C9.04242 11.1515 9.11514 11.1515 9.18787 11.1757C9.28484 11.2 9.35757 11.2242 9.40605 11.2727C9.45454 11.297 9.47878 11.3212 9.47878 11.3697C9.50302 11.4182 9.50302 11.4424 9.47878 11.4909C9.47878 11.5394 9.45454 11.5879 9.40605 11.6364C9.47878 11.6364 9.57575 11.6121 9.64848 11.5879C9.76969 11.5636 9.86666 11.5394 9.91514 11.5636V11.5879C9.86666 11.6121 9.81817 11.6364 9.76969 11.6848C9.7212 11.7333 9.62423 11.806 9.43029 11.903C9.50302 11.9273 9.57575 11.9515 9.62423 11.9515C9.69696 11.9515 9.76969 11.9273 9.84242 11.8788C9.84242 11.8788 9.86666 11.8545 9.8909 11.8545C9.98787 11.806 10.1333 11.6848 10.2545 11.7818V11.806C10.1333 11.806 10.0848 11.8788 10.0121 11.9757C9.96363 12.0485 9.8909 12.1212 9.79393 12.1697C9.98787 12.1939 10.1576 12.1697 10.2788 12.097C10.4 12.0242 10.497 11.903 10.5697 11.7818C10.6424 11.6606 10.7151 11.6121 10.7636 11.5636C10.7879 11.5394 10.8121 11.5151 10.8121 11.5151C10.7394 11.4909 10.6424 11.4909 10.5697 11.4909C10.497 11.4909 10.4 11.4909 10.3273 11.4667C10.2303 11.4424 10.1576 11.4182 10.0848 11.3939C10.0121 11.3697 9.93939 11.3212 9.86666 11.297C9.74545 11.2242 9.64848 11.1273 9.59999 11.0545C9.52726 10.9818 9.47878 10.8848 9.45454 10.8364C9.43029 10.8121 9.43029 10.7879 9.43029 10.7636C9.35757 10.5939 9.30908 10.4485 9.06666 10.4727C9.11514 10.5212 9.13939 10.5939 9.16363 10.6424C9.18787 10.6909 9.21211 10.7636 9.21211 10.8121C9.21211 10.8121 9.18787 10.8364 9.18787 10.8121C9.13939 10.6909 9.04242 10.5939 8.96969 10.5454C8.9212 10.5212 8.89696 10.497 8.84848 10.497C8.79999 10.497 8.77575 10.497 8.72726 10.5212C8.67878 10.5454 8.65454 10.5697 8.60605 10.6424C8.63029 10.6424 8.65454 10.6667 8.67878 10.6667L8.70302 10.6909C8.75151 10.7151 8.77575 10.7394 8.82423 10.7636C8.84848 10.7879 8.87272 10.8364 8.89696 10.8606V10.8848C8.84848 10.8848 8.82423 10.8606 8.77575 10.8364C8.72726 10.7879 8.65454 10.7636 8.53333 10.7879C8.63029 11.0788 8.72726 11.103 8.99393 11.1273Z" fill="#F2BE4B"/>
<path d="M12.0485 14.9333C12.097 14.7879 12.1697 14.6182 12.2664 14.4732C12.1934 14.4485 12.1207 14.4485 12.024 14.4974C11.9513 14.5459 11.8543 14.6187 11.7331 14.7156H11.7088C11.7573 14.5944 11.8058 14.4974 11.8543 14.4247C11.9028 14.352 11.9755 14.328 12.0482 14.279C11.9513 14.279 11.8543 14.279 11.7573 14.3035C11.6361 14.328 11.4907 14.3762 11.3694 14.4732H11.3452C11.3452 14.4002 11.3937 14.3273 11.4664 14.279C11.5149 14.2308 11.6119 14.206 11.6604 14.1578C11.7088 14.1333 11.7573 14.1096 11.7816 14.0848C11.8058 14.0606 11.83 14.0606 11.8543 14.0366C11.7816 14.0366 11.7088 14.0366 11.6119 14.0611C11.5391 14.0611 11.4664 14.0856 11.3937 14.0856C11.3452 14.0856 11.321 14.0856 11.2725 14.0856C11.1997 14.0856 11.127 14.0856 11.0543 14.11C10.9573 14.1343 10.8604 14.1828 10.7876 14.2555C10.7391 14.3282 10.7149 14.4012 10.7149 14.5224C10.7149 14.6191 10.7634 14.7166 10.8119 14.7893C10.8604 14.886 10.9331 14.9833 10.9331 15.1285C10.9331 15.2742 10.8361 15.3464 10.7391 15.3954C10.6422 15.4439 10.4967 15.4439 10.3997 15.4439C10.327 15.4439 10.2785 15.4439 10.2058 15.4439C10.1573 15.4439 10.1088 15.4191 10.0604 15.3954C10.0119 15.3716 9.98763 15.3469 9.93914 15.3469C9.89066 15.3227 9.81793 15.2742 9.7452 15.2742C9.67247 15.2742 9.59975 15.2742 9.52702 15.3227C9.47853 15.3709 9.43005 15.4191 9.40581 15.4681C9.43005 15.4681 9.45429 15.4681 9.47854 15.4681C9.50278 15.4681 9.50278 15.4681 9.52702 15.4681C9.62399 15.4439 9.69672 15.4439 9.7452 15.4681C9.79369 15.4928 9.81793 15.5166 9.81793 15.5651V15.5893C9.76944 15.5893 9.7452 15.5893 9.69672 15.5893C9.59975 15.5893 9.52702 15.5893 9.47854 15.614C9.43005 15.6383 9.38157 15.6623 9.35732 15.7105C9.33308 15.759 9.30884 15.8075 9.30884 15.8565C9.30884 15.8807 9.30884 15.9047 9.30884 15.9292C9.30884 15.9537 9.33308 15.9777 9.33308 16.0019C9.38157 15.905 9.45429 15.8565 9.52702 15.8325C9.59975 15.7837 9.69672 15.7837 9.79369 15.808C9.79369 15.808 9.79369 15.808 9.79369 15.8325C9.7452 15.8567 9.64823 15.9292 9.59975 16.0019C9.55126 16.0504 9.52702 16.1231 9.50278 16.1716C9.5755 16.1471 9.64823 16.1716 9.72096 16.1716C9.79369 16.1961 9.86641 16.1961 9.9149 16.1471C9.93914 16.1227 9.96338 16.0989 9.96338 16.0742C10.0119 16.0259 10.0604 15.9777 10.1088 15.9287C10.1331 15.904 10.1573 15.8802 10.1816 15.8802C10.2058 15.8802 10.23 15.8557 10.2543 15.8557C10.4482 15.8557 10.6179 15.8557 10.7391 15.8557C10.8361 15.8802 10.9331 15.904 10.9573 15.9287C10.9573 15.8802 10.9331 15.8557 10.9088 15.8317C10.8604 15.7835 10.8119 15.759 10.7391 15.7105V15.6863C10.9088 15.6133 11.0543 15.6616 11.224 15.7105C11.4179 15.7835 11.6119 15.8317 11.7816 15.6863C11.7088 15.6863 11.6604 15.6378 11.6119 15.5893C11.5391 15.5411 11.4422 15.4681 11.2967 15.4681C11.2967 15.4681 11.2967 15.4681 11.2967 15.4439C11.321 15.3954 11.3694 15.3469 11.4179 15.3227C11.4664 15.2979 11.5391 15.2742 11.6119 15.2742C11.6846 15.2742 11.7816 15.2987 11.83 15.3227C11.927 15.3469 11.9997 15.3709 12.0967 15.3709C12.0242 15.2727 12.0242 15.103 12.0485 14.9333Z" fill="#F2BE4B"/>
<path d="M10.3515 10.7394C10.4243 10.7879 10.5212 10.8121 10.6182 10.8121C10.7152 10.8121 10.8121 10.7636 10.9333 10.7152C11.103 10.6424 11.297 10.5455 11.5394 10.5697C11.2727 10.497 11.0546 10.5697 10.8606 10.6182C10.7636 10.6424 10.6909 10.6667 10.6182 10.6667C10.5212 10.6667 10.4243 10.6667 10.3758 10.6424C10.303 10.6182 10.2546 10.594 10.2303 10.5697C10.2303 10.6424 10.2788 10.6909 10.3515 10.7394Z" fill="#F2BE4B"/>
</svg>
