<svg width="24" height="24" viewBox="0 0 24 24" fill="none" xmlns="http://www.w3.org/2000/svg">
<title>Sporting</title>
<path fill-rule="evenodd" clip-rule="evenodd" d="M12 24C8.15751 22.7068 5.251 20.2422 3.89646 16.8795H8.08225C7.81414 16.4986 7.5884 16.094 7.41441 15.6614H3.48732C3.37914 15.2664 3.28981 14.862 3.22391 14.4481H7.05231C6.98171 14.0577 6.93942 13.6533 6.93471 13.2299H3.08759C3.06873 12.9571 3.05933 12.6749 3.05933 12.3928C3.05933 12.2657 3.06407 12.1387 3.06407 12.0165H6.98171C7.00527 11.7391 7.04286 11.471 7.08989 11.2076C7.11345 11.0712 7.14168 10.9347 7.1699 10.7984H3.11107C3.23341 8.92183 3.59551 7.36046 4.24928 5.77548C6.42209 5.72374 7.13697 5.36625 8.01648 4.92423C9.01354 4.42568 9.87419 3.88959 12 3.88959C14.126 3.88959 14.9865 4.42572 15.9835 4.92423C16.8631 5.36625 17.5779 5.72374 19.7507 5.77548C20.4044 7.36046 20.7667 8.92187 20.8889 10.7984H16.83C16.8583 10.9347 16.8865 11.0711 16.9101 11.2076C16.9571 11.471 16.9948 11.7391 17.0182 12.0165H20.9359C20.9359 12.1387 20.9407 12.2658 20.9407 12.3928C20.9407 12.6749 20.9312 12.9571 20.9124 13.2299H17.0653C17.0606 13.6533 17.0181 14.0577 16.9476 14.4481H20.7759C20.71 14.862 20.6208 15.2664 20.5126 15.6614H16.5856C16.4116 16.094 16.1857 16.4986 15.9177 16.8795H20.1035C18.749 20.2422 15.8425 22.7068 12 24Z" fill="#008057"/>
<path fill-rule="evenodd" clip-rule="evenodd" d="M20.5126 15.6613C20.395 16.0799 20.2586 16.4845 20.1035 16.8795H15.9178C16.1857 16.4986 16.4116 16.094 16.5856 15.6613H20.5126Z" fill="white"/>
<path fill-rule="evenodd" clip-rule="evenodd" d="M17.0653 13.2299C17.0607 13.6533 17.0182 14.0577 16.9477 14.448H20.776C20.8417 14.0529 20.8842 13.6437 20.9124 13.2299H17.0653Z" fill="white"/>
<path fill-rule="evenodd" clip-rule="evenodd" d="M16.83 10.7983C16.8583 10.9347 16.8865 11.0711 16.9101 11.2075C16.9571 11.471 16.9947 11.739 17.0182 12.0165H20.9359C20.9312 11.5932 20.917 11.1887 20.8888 10.7983H16.83Z" fill="white"/>
<path fill-rule="evenodd" clip-rule="evenodd" d="M6.98176 12.0165C7.00533 11.739 7.04291 11.471 7.08995 11.2076C7.11351 11.0712 7.14173 10.9347 7.16996 10.7983H3.11108C3.0829 11.1887 3.06875 11.5932 3.06409 12.0165H6.98176Z" fill="white"/>
<path fill-rule="evenodd" clip-rule="evenodd" d="M7.0523 14.448C6.9817 14.0577 6.93941 13.6533 6.93471 13.2299H3.08759C3.11576 13.6438 3.1581 14.0529 3.22395 14.448H7.0523Z" fill="white"/>
<path fill-rule="evenodd" clip-rule="evenodd" d="M8.08227 16.8796C7.81416 16.4986 7.58843 16.0941 7.41443 15.6614H3.4873C3.6049 16.0799 3.74122 16.4846 3.89644 16.8796H8.08227Z" fill="white"/>
<path fill-rule="evenodd" clip-rule="evenodd" d="M12.0376 19.3346H11.9624C10.495 18.8361 9.28156 18.0224 8.44447 16.9406C7.64496 15.9014 7.19345 14.6127 7.19345 13.1312C7.19345 12.4352 7.24045 11.8237 7.34393 11.2546C7.44741 10.6855 7.60263 10.1541 7.82362 9.61793L7.85659 9.54263C8.28924 9.5286 8.73139 9.50975 9.14994 9.39681C9.44623 9.31689 9.7143 9.18053 9.98711 9.04408C10.4716 8.79483 10.9512 8.55023 12 8.55023C13.0488 8.55023 13.5285 8.79483 14.013 9.04408C14.2857 9.18049 14.5538 9.31685 14.8501 9.39681C15.2687 9.50975 15.7108 9.5286 16.1434 9.54263L16.1764 9.61793C16.3975 10.1541 16.5526 10.6855 16.6561 11.2546C16.7597 11.8237 16.8066 12.4352 16.8066 13.1312C16.8066 14.6127 16.3551 15.9014 15.5555 16.9406C14.7185 18.0223 13.5051 18.8361 12.0376 19.3346Z" fill="white"/>
<path fill-rule="evenodd" clip-rule="evenodd" d="M11.9999 19.0759C13.3968 18.5962 14.5537 17.8153 15.3485 16.7807C16.1152 15.7884 16.548 14.5561 16.548 13.1311C16.548 12.4491 16.5057 11.8519 16.4021 11.2969C16.3081 10.7749 16.167 10.2904 15.9694 9.79659C15.4381 9.77782 15.071 9.72599 14.7842 9.64607C14.4692 9.56141 14.1869 9.42034 13.8953 9.27457C13.4392 9.03938 12.9876 8.8089 12 8.8089C11.0123 8.8089 10.5608 9.03934 10.1046 9.27457C9.81302 9.42034 9.53084 9.56141 9.21569 9.64607C8.92881 9.72599 8.562 9.77782 8.03053 9.79659C7.83301 10.2904 7.6919 10.7749 7.59783 11.2969C7.49443 11.8519 7.45206 12.4491 7.45206 13.1311C7.45206 14.556 7.88476 15.7884 8.65133 16.7807C9.44613 17.8153 10.6031 18.5962 11.9999 19.0759Z" fill="#008057"/>
<path fill-rule="evenodd" clip-rule="evenodd" d="M6.5302 8.4609C6.66195 8.55967 6.72301 8.70545 6.70428 8.903C6.68542 9.10051 6.59139 9.31684 6.41736 9.55677C6.31862 9.69314 6.22455 9.80603 6.13051 9.8907C6.03644 9.98007 5.99877 10.0129 5.90469 10.0788L5.56137 9.86713C5.69311 9.79183 5.77774 9.74018 5.90469 9.64144C6.01763 9.55677 6.10695 9.46266 6.18217 9.35918C6.20103 9.33561 6.2245 9.29803 6.24802 9.25569C6.27629 9.2087 6.29506 9.17107 6.30447 9.1381C6.31862 9.10047 6.32332 9.06288 6.32332 9.02992C6.32332 8.99703 6.30917 8.96885 6.27629 8.94525C6.2434 8.92177 6.21044 8.92177 6.16336 8.93593C6.12106 8.95004 6.07403 8.98292 6.01767 9.03466C5.96118 9.08645 5.90008 9.14755 5.83888 9.20874C5.77774 9.26989 5.72129 9.32163 5.66019 9.37337C5.51908 9.48626 5.39678 9.54737 5.2933 9.56618C5.18511 9.58029 5.08163 9.55207 4.9923 9.48626C4.86534 9.39219 4.81352 9.25112 4.83238 9.05827C4.85585 8.86071 4.94527 8.65383 5.10049 8.43746C5.18041 8.32928 5.26978 8.2258 5.3639 8.13172C5.44382 8.0518 5.51903 7.98595 5.59433 7.9295L5.84833 8.17405C5.66485 8.27754 5.47678 8.44683 5.35915 8.60671C5.33097 8.63968 5.30749 8.67731 5.28864 8.71494C5.26516 8.75253 5.2463 8.79016 5.2369 8.83245C5.22278 8.87008 5.21812 8.90304 5.22278 8.93597C5.22745 8.9689 5.24156 8.99712 5.26512 9.01589C5.298 9.03937 5.34033 9.04407 5.38271 9.0253C5.42504 9.00182 5.48611 8.95479 5.57086 8.87008C5.6226 8.81842 5.67896 8.76668 5.726 8.71956C5.77774 8.66782 5.83418 8.62082 5.89529 8.56908C6.02224 8.4656 6.13513 8.40445 6.23861 8.38559C6.3421 8.36682 6.43617 8.39509 6.5302 8.4609Z" fill="white"/>
<path fill-rule="evenodd" clip-rule="evenodd" d="M7.44736 6.69257C7.36735 6.669 7.28743 6.6643 7.19344 6.68312C7.11814 6.69723 7.03818 6.73015 6.95826 6.77249C6.87834 6.81482 6.78897 6.88067 6.69015 6.9653L6.02701 7.52029L7.09462 8.79487L7.48028 8.47035L7.13225 8.05651L7.40036 7.83078C7.51796 7.732 7.60262 7.64267 7.65436 7.5486C7.71072 7.45923 7.7484 7.3652 7.76725 7.26167C7.78598 7.18646 7.78136 7.1112 7.75785 7.03594C7.73899 6.96072 7.70136 6.89487 7.65436 6.83842C7.59313 6.76312 7.52257 6.71608 7.44736 6.69257ZM7.31565 7.29451C7.3251 7.32748 7.3251 7.36511 7.31565 7.4074C7.30154 7.45444 7.27807 7.49677 7.23573 7.54377C7.1981 7.58619 7.14636 7.63793 7.07581 7.69428L6.92999 7.81662L6.61018 7.43567L6.70905 7.351C6.7749 7.29455 6.8313 7.25222 6.86897 7.21934C6.91131 7.18637 6.9583 7.16289 7.01474 7.13933C7.05237 7.12531 7.09466 7.12056 7.14179 7.12531C7.18878 7.12993 7.22641 7.15349 7.25459 7.18637C7.28743 7.224 7.30629 7.26159 7.31565 7.29451Z" fill="white"/>
<path fill-rule="evenodd" clip-rule="evenodd" d="M9.41796 5.77543C9.18282 5.70491 8.91005 5.7378 8.60431 5.8648C8.29395 5.99646 8.08228 6.17045 7.96939 6.38682C7.8565 6.60785 7.8518 6.83834 7.95528 7.08293C8.05876 7.32748 8.22805 7.4827 8.46319 7.55321C8.69834 7.62373 8.97111 7.59084 9.28151 7.45914C9.59196 7.32748 9.80358 7.15348 9.91647 6.93711C10.0294 6.72074 10.0341 6.4903 9.93058 6.2458C9.82714 5.99646 9.65781 5.84128 9.41796 5.77543ZM9.34266 7.05937C9.291 7.1017 9.22507 7.14403 9.1593 7.17226C9.09341 7.20052 9.01819 7.21929 8.95234 7.224C8.88644 7.2287 8.82068 7.224 8.75953 7.20052C8.69834 7.17696 8.64189 7.13933 8.59015 7.08763C8.53371 7.03585 8.48676 6.96529 8.44908 6.87122C8.41145 6.78189 8.39264 6.70197 8.39264 6.62205C8.39264 6.54204 8.40205 6.47153 8.43027 6.41509C8.46315 6.35394 8.50078 6.3022 8.54778 6.25986C8.59952 6.22224 8.66541 6.17986 8.72656 6.15638C8.79233 6.12812 8.86292 6.10935 8.92878 6.09994C8.99463 6.09523 9.06052 6.10464 9.12163 6.12341C9.18278 6.14698 9.23922 6.18461 9.29562 6.2363C9.35207 6.28804 9.39436 6.36335 9.43669 6.45267C9.46966 6.53734 9.49318 6.6173 9.49318 6.69256C9.49788 6.76308 9.48373 6.83363 9.45555 6.90414C9.43212 6.96529 9.38974 7.01703 9.34266 7.05937Z" fill="white"/>
<path fill-rule="evenodd" clip-rule="evenodd" d="M11.6567 6.26926C11.7836 6.20812 11.8777 6.1329 11.9389 6.04823C12 5.96831 12.0235 5.86483 12.0141 5.74258C12.0047 5.65321 11.9812 5.58265 11.9342 5.52616C11.8824 5.46972 11.8165 5.42743 11.7366 5.39925C11.6567 5.36624 11.5767 5.35213 11.4873 5.34751C11.398 5.34276 11.2945 5.34751 11.177 5.35683L10.3069 5.43213L10.4527 7.09237L10.9418 7.04533L10.8901 6.43864L11.1488 6.41516C11.3886 6.59857 11.5721 6.78671 11.6755 6.98418L12.2493 6.9513C12.0987 6.69255 11.9483 6.45267 11.6567 6.26926ZM11.4639 5.95412C11.4498 5.98238 11.4262 6.01056 11.3933 6.03878C11.3556 6.06696 11.3086 6.08582 11.2522 6.09523C11.2005 6.10934 11.1299 6.1187 11.0452 6.12341L10.8665 6.14226L10.8242 5.69541L11.0359 5.67664C11.097 5.67194 11.1535 5.66723 11.2005 5.66723C11.2475 5.66253 11.2898 5.66723 11.3275 5.67664C11.3792 5.69075 11.4168 5.70961 11.4404 5.73779C11.4639 5.76605 11.478 5.79898 11.4827 5.84127C11.4873 5.88831 11.4779 5.92594 11.4639 5.95412Z" fill="white"/>
<path fill-rule="evenodd" clip-rule="evenodd" d="M14.0176 5.45558L12.2257 5.26752L12.1881 5.6108L12.8466 5.68136L12.7054 6.98886L13.1899 7.0406L13.3263 5.7284L13.98 5.79899L14.0176 5.45558Z" fill="white"/>
<path fill-rule="evenodd" clip-rule="evenodd" d="M14.9253 5.74255L14.455 5.60614L13.994 7.20523L14.4692 7.33689L14.9253 5.74255Z" fill="white"/>
<path fill-rule="evenodd" clip-rule="evenodd" d="M17.4039 6.9747L16.99 6.73015L16.435 7.58618L16.0023 6.20338L15.5602 6.00116L14.8783 7.51563L15.3016 7.69903L15.7155 6.796L16.1341 8.15046L16.4961 8.3998L17.4039 6.9747Z" fill="white"/>
<path fill-rule="evenodd" clip-rule="evenodd" d="M18.5373 9.47207L18.0999 8.79012L17.8554 8.9689L18.0152 9.22278L17.7753 9.39215C17.6295 9.22752 17.4038 8.8889 17.4132 8.66316C17.4179 8.50794 17.4978 8.37628 17.6436 8.26805C17.7142 8.21169 17.7895 8.17872 17.8648 8.16466C17.9399 8.1505 18.0104 8.1505 18.081 8.16936C18.2364 8.21169 18.3822 8.34335 18.4761 8.46565C18.5232 8.5315 18.5608 8.5974 18.5938 8.66321C18.6596 8.81372 18.7066 9.04887 18.7348 9.24638L19.0499 9.01124C19.003 8.8561 18.9511 8.66321 18.8948 8.55498C18.8336 8.44688 18.7676 8.33399 18.6831 8.23051C18.4715 7.94362 18.2411 7.76954 17.9964 7.70848C17.7519 7.64733 17.526 7.68962 17.3192 7.84485C17.1028 8.00948 16.99 8.2164 16.9852 8.46565C16.9852 8.71495 17.084 8.97827 17.2956 9.25579C17.3849 9.37804 17.4884 9.48631 17.6013 9.58979C17.7142 9.69319 17.8787 9.85312 17.9588 9.90956L18.5373 9.47207Z" fill="white"/>
<path fill-rule="evenodd" clip-rule="evenodd" d="M7.36269 19.2687C7.32036 19.3158 7.27336 19.3486 7.21692 19.3722C7.15577 19.3957 7.09933 19.405 7.03813 19.4004C6.95351 19.3957 6.87359 19.3769 6.79829 19.3392C6.71828 19.3062 6.63836 19.2453 6.54903 19.1652L6.33737 18.9678L6.04108 19.2829L5.75415 19.0149L6.66192 18.046L7.17454 18.502C7.24976 18.5726 7.30629 18.6384 7.34854 18.6997C7.42384 18.7984 7.4802 18.9678 7.45672 19.0899C7.44736 19.1558 7.41443 19.2123 7.36269 19.2687ZM7.04763 18.9912C7.07581 18.963 7.08992 18.9301 7.08992 18.8925C7.08992 18.8595 7.08051 18.822 7.06174 18.7936C7.04288 18.7514 7.0147 18.7185 6.98652 18.6903C6.95826 18.6573 6.91601 18.6196 6.86418 18.5726L6.77952 18.4927L6.50674 18.7842L6.629 18.8972C6.68074 18.9442 6.72778 18.9818 6.76536 19.0101C6.80299 19.0383 6.84066 19.0523 6.87829 19.0571C6.91126 19.0617 6.94415 19.0617 6.97237 19.0477C6.99589 19.0383 7.02411 19.0194 7.04763 18.9912Z" fill="white"/>
<path fill-rule="evenodd" clip-rule="evenodd" d="M8.82071 20.2893C8.71248 20.4726 8.56667 20.5808 8.37386 20.6138C8.18105 20.6468 7.96942 20.5998 7.74364 20.4681C7.51791 20.3363 7.36739 20.1765 7.30154 19.993C7.23569 19.8143 7.2545 19.6309 7.36269 19.4475C7.46617 19.2593 7.61669 19.1512 7.8095 19.1183C7.99764 19.0852 8.20927 19.137 8.435 19.264C8.66074 19.3958 8.81126 19.5556 8.87711 19.7344C8.94762 19.9177 8.92881 20.1012 8.82071 20.2893ZM8.1763 20.3034C8.22808 20.2893 8.27982 20.261 8.32682 20.2234C8.36915 20.1858 8.41149 20.1388 8.44916 20.073C8.48679 20.0024 8.51031 19.9366 8.51967 19.88C8.52908 19.8189 8.52438 19.7625 8.51026 19.7154C8.49611 19.6684 8.47263 19.6214 8.43975 19.5839C8.40212 19.5461 8.35508 19.5086 8.31271 19.485C8.26571 19.4568 8.21393 19.4379 8.16694 19.4286C8.1152 19.4145 8.06816 19.4145 8.01642 19.4286C7.96468 19.4379 7.91764 19.4616 7.8659 19.5038C7.81886 19.5414 7.77657 19.5933 7.73415 19.6638C7.69656 19.7295 7.673 19.7954 7.66368 19.8518C7.65427 19.9131 7.65893 19.9694 7.673 20.0166C7.68716 20.0636 7.71063 20.1105 7.7436 20.1482C7.78123 20.1858 7.82352 20.2234 7.87056 20.247C7.9176 20.2751 7.97404 20.2986 8.02578 20.3081C8.07286 20.3175 8.1246 20.3175 8.1763 20.3034Z" fill="white"/>
<path fill-rule="evenodd" clip-rule="evenodd" d="M10.3116 21.3663L9.8413 21.2158C9.82244 21.0135 9.71896 20.8159 9.5873 20.6185L9.38504 20.5526L9.23456 21.0183L8.85361 20.896L9.26274 19.6309L9.93529 19.8471C10.0294 19.8754 10.1046 19.9084 10.1658 19.9366C10.2317 19.9695 10.288 20.0071 10.3351 20.0541C10.3868 20.1012 10.4197 20.1529 10.4386 20.2094C10.4573 20.2658 10.4573 20.3271 10.4386 20.3928C10.4056 20.4869 10.3539 20.5574 10.2833 20.595C10.2081 20.6374 10.1188 20.6609 10.0059 20.6703C10.1375 20.8537 10.241 21.0842 10.3116 21.3663ZM10.02 20.3034C10.0294 20.2704 10.0294 20.2422 10.0247 20.214C10.0153 20.1859 9.99173 20.1575 9.95885 20.1341C9.93529 20.1153 9.90241 20.1011 9.86948 20.0871C9.83189 20.073 9.78956 20.0588 9.74252 20.04L9.57323 19.9883L9.46034 20.327L9.61082 20.3739C9.67197 20.3976 9.72845 20.4116 9.77549 20.421C9.81778 20.4304 9.86012 20.4304 9.89308 20.421C9.92597 20.4116 9.95423 20.3976 9.97301 20.3833C9.99173 20.3645 10.0106 20.3411 10.02 20.3034Z" fill="white"/>
<path fill-rule="evenodd" clip-rule="evenodd" d="M12 20.1293L10.5656 20.007L10.542 20.2799L11.0735 20.327L10.9842 21.3757L11.3509 21.4087L11.4403 20.3598L11.9765 20.4068L12 20.1293Z" fill="white"/>
<path fill-rule="evenodd" clip-rule="evenodd" d="M13.6507 19.9695L13.2416 20.0118L13.3121 20.8443C13.3215 20.943 13.3027 21.0135 13.2558 21.0605C13.2134 21.1077 13.1241 21.1358 13.0206 21.1452C12.9124 21.1547 12.8183 21.1406 12.7666 21.1029C12.7148 21.0605 12.6866 20.9948 12.6772 20.9006L12.6067 20.0776L12.2022 20.1058L12.2727 20.957C12.2869 21.1218 12.3622 21.2393 12.4891 21.3145C12.6208 21.3946 12.8043 21.4228 13.0441 21.3992C13.2792 21.3803 13.458 21.3193 13.5709 21.2204C13.6884 21.1217 13.7355 20.9947 13.7213 20.83L13.6507 19.9695Z" fill="white"/>
<path fill-rule="evenodd" clip-rule="evenodd" d="M15.5508 20.0211L14.9677 20.1999L15.0382 20.4398L15.2639 20.3693L15.3392 20.6185C15.1652 20.6891 14.9018 20.7596 14.723 20.6891C14.6055 20.6419 14.5303 20.5479 14.4832 20.4068C14.4645 20.3363 14.4597 20.2751 14.4692 20.214C14.4879 20.0871 14.5631 19.9929 14.6666 19.9224C14.7185 19.8894 14.7935 19.8566 14.8642 19.833C14.9253 19.8143 14.9864 19.8049 15.0476 19.8001C15.1746 19.7954 15.3439 19.8142 15.4757 19.8378L15.3815 19.5366C15.2546 19.5273 15.1417 19.5321 15.0428 19.5461C14.9489 19.5603 14.8454 19.5791 14.7467 19.6119C14.4738 19.6967 14.281 19.8189 14.1635 19.9883C14.0506 20.1529 14.0223 20.3363 14.0835 20.5338C14.1446 20.7408 14.2715 20.882 14.4597 20.9524C14.6432 21.0229 14.8688 21.0183 15.1369 20.9384C15.2498 20.9054 15.3628 20.8583 15.4709 20.802C15.5792 20.7455 15.6779 20.6891 15.7438 20.6467L15.5508 20.0211Z" fill="white"/>
<path fill-rule="evenodd" clip-rule="evenodd" d="M17.5168 19.692L17.1404 19.9131L16.9053 19.7343L16.3833 20.04L16.4161 20.327L16.0494 20.5384L15.9082 19.0851L16.3269 18.8454L17.5168 19.692ZM16.6936 19.5744L16.2846 19.2639L16.3456 19.7765L16.6936 19.5744Z" fill="white"/>
<path fill-rule="evenodd" clip-rule="evenodd" d="M18.4104 18.4692L17.8554 18.9865L17.1311 18.2105L16.8442 18.4786L17.7472 19.4522L18.5938 18.6668L18.4104 18.4692Z" fill="white"/>
<path fill-rule="evenodd" clip-rule="evenodd" d="M6.24336 3.71545C6.4032 3.71545 7.04757 3.73431 7.579 3.58849C7.96466 3.48031 8.33621 3.24987 8.24684 3.0335C8.16222 2.84069 7.79533 2.83594 7.36263 2.93472C6.81713 3.06168 6.26684 3.01938 6.07873 2.93472C5.86702 2.84069 5.69307 2.67131 5.60836 2.44557C5.52369 2.21043 5.62713 1.87655 5.85761 1.62251C6.08814 1.36864 6.43142 1.16168 6.88294 0.997089C7.31559 0.837163 7.75299 0.757242 8.20455 0.710205L8.49605 1.33571C8.2468 1.33101 7.95055 1.34042 7.6354 1.40157C7.31559 1.45792 6.97231 1.56619 6.77475 1.7496C6.59135 1.92368 6.68068 2.16352 6.93938 2.13526C7.08515 2.12115 7.2733 2.10238 7.44264 2.08352C7.86588 2.04589 8.31269 1.98004 8.72658 2.10238C9.55426 2.34693 9.35209 3.14643 8.84883 3.6026C8.65602 3.7766 8.42554 3.91305 8.22332 4.00704C7.71541 4.24218 7.12278 4.33155 6.58194 4.37393L6.24336 3.71545Z" fill="#008057"/>
<path fill-rule="evenodd" clip-rule="evenodd" d="M13.8201 0.291587C13.5896 0.197513 13.3451 0.122296 13.0865 0.0752166C12.8324 0.0234758 12.5596 0 12.2821 0C11.9295 0 11.5908 0.0422906 11.271 0.122254C10.7442 0.258619 10.1751 0.531391 9.86944 1.00647C9.74248 1.20873 9.68134 1.42039 9.68134 1.65075C9.68134 1.91415 9.76596 2.16345 9.93525 2.38444C10.2833 2.8407 10.8853 3.10402 11.4309 3.22161C11.699 3.2781 11.9812 3.29692 12.2727 3.29692C12.5501 3.29692 12.8136 3.27335 13.0675 3.22632C13.3215 3.17932 13.6413 3.05707 13.853 2.9677L13.8483 2.20108C13.378 2.44563 12.8654 2.59145 12.3338 2.59145C11.7554 2.59145 10.8524 2.38923 10.8524 1.64142C10.8524 0.898366 11.7507 0.696149 12.3338 0.696149C12.8276 0.696149 13.4062 0.813742 13.8201 1.07236V0.291587H13.8201Z" fill="#008057"/>
<path fill-rule="evenodd" clip-rule="evenodd" d="M15.5602 3.80013L15.9271 2.64785L16.7689 2.91596C17.0464 3.00058 17.4932 3.06644 17.8742 2.93473C18.4151 2.74192 18.5798 2.1493 18.2504 1.68842C18.114 1.49557 17.907 1.34039 17.7096 1.24161C17.4979 1.13813 17.0841 1.01587 16.7078 0.888874L15.5132 0.493805L14.5725 3.47562L15.5602 3.80013ZM17.4085 2.12582C17.3334 2.37508 16.8537 2.31863 16.6701 2.26219L16.1104 2.08819L16.3221 1.39217L16.957 1.59443C17.1735 1.66494 17.4932 1.86241 17.4085 2.12582Z" fill="#008057"/>
<path fill-rule="evenodd" clip-rule="evenodd" d="M12.9453 9.8013C12.8277 9.89067 12.7337 9.96584 12.6349 9.99411C12.6255 9.99411 12.6255 10.0083 12.6303 10.0083C12.7054 10.0411 12.8043 10.0364 12.9077 10.0364C13.0065 10.0317 13.1146 10.0317 13.2086 10.0553C13.2745 10.0693 13.3215 10.1023 13.3592 10.1399C13.3922 10.1823 13.4156 10.2293 13.4204 10.2716C13.3027 10.2104 13.1898 10.1823 13.0911 10.187C13.0488 10.187 13.0065 10.1964 12.9735 10.2151C12.9359 10.2339 12.9077 10.2623 12.8888 10.2951C12.8654 10.3328 12.8559 10.3798 12.8559 10.4363C12.8606 10.4409 12.8654 10.4457 12.87 10.4409C12.9171 10.4127 12.9641 10.3939 13.0112 10.3844C13.0536 10.3703 13.0958 10.3657 13.1381 10.3703C13.2369 10.375 13.3215 10.4127 13.3874 10.4691C13.4532 10.5255 13.4957 10.6008 13.4957 10.6761C13.5003 10.742 13.5051 10.8124 13.5191 10.8736C13.5285 10.9253 13.5473 10.9723 13.5708 11.0194C13.5051 10.9912 13.4627 10.9301 13.4204 10.8689C13.3592 10.7889 13.2981 10.7043 13.1852 10.6855C13.1381 10.6761 13.0865 10.6855 13.0394 10.709C12.9923 10.7325 12.9547 10.7749 12.9264 10.8265C12.9218 10.8359 12.9264 10.8407 12.9359 10.8407C13.0252 10.8359 13.1052 10.8547 13.1711 10.8923C13.2464 10.9301 13.3074 10.9912 13.3545 11.0616C13.4532 11.2169 13.4627 11.3533 13.4674 11.4709C13.4721 11.5648 13.4768 11.6449 13.5238 11.7201C13.4108 11.6778 13.3451 11.5554 13.2887 11.4426C13.2557 11.3767 13.2275 11.3203 13.1898 11.278C13.1711 11.2592 13.1522 11.245 13.1287 11.231C13.0911 11.2121 13.0535 11.2027 13.0112 11.2074C12.9687 11.2169 12.9311 11.2357 12.8982 11.2686C12.8747 11.2874 12.8513 11.3156 12.837 11.3485C12.8324 11.3533 12.837 11.3627 12.8418 11.3627C12.9358 11.3627 13.0252 11.4003 13.0957 11.4709C13.1616 11.532 13.2086 11.626 13.2275 11.7389C13.2367 11.8283 13.2367 11.9317 13.2321 12.0352C13.2275 12.2421 13.2227 12.4537 13.345 12.5853C13.124 12.5479 13.0769 12.3503 13.0298 12.1575C13.0158 12.1009 13.0016 12.0493 12.9828 11.9975C12.9592 11.9224 12.917 11.8612 12.8699 11.8141C12.8135 11.7624 12.7523 11.7341 12.6959 11.7248C12.6912 11.7248 12.6865 11.7342 12.6912 11.7436C12.7806 11.8377 12.8135 11.9506 12.8135 12.0728C12.8135 12.1951 12.7852 12.3316 12.7478 12.4774C12.7193 12.5853 12.7101 12.6936 12.7289 12.7877C12.743 12.877 12.776 12.9523 12.837 13.0134C12.8417 13.0182 12.8513 13.0134 12.8513 13.0087C12.8605 12.9289 12.8747 12.8629 12.9029 12.8112C12.931 12.7641 12.964 12.7218 13.0063 12.6843C13.0063 12.7125 13.0063 12.7407 13.0063 12.7737C13.0111 13.0087 13.0158 13.2581 13.0393 13.4368C13.0535 13.5496 13.1286 13.733 13.2181 13.907C13.3262 14.1187 13.4531 14.3208 13.5238 14.3961C13.6413 14.5185 13.7683 14.5889 13.8952 14.6173C14.0033 14.6408 14.1116 14.6313 14.2009 14.5937C14.2949 14.5607 14.3702 14.495 14.422 14.415C14.4737 14.3397 14.5019 14.2457 14.4973 14.1422C14.4878 13.9965 14.4643 13.8836 14.3891 13.7095C14.3138 13.5402 14.1916 13.3097 13.9987 12.9335C13.9 12.7455 13.82 12.5479 13.7871 12.3504C13.7541 12.1481 13.7683 11.9458 13.8576 11.7437C13.9189 11.5932 14.0175 11.4756 14.1445 11.3956C14.2621 11.325 14.4032 11.2874 14.5631 11.3063C14.5631 11.3063 14.5678 11.3017 14.5725 11.3017C14.596 11.2451 14.6336 11.2075 14.6807 11.1793C14.7324 11.1511 14.7935 11.137 14.8547 11.1322C14.9393 11.1322 15.0241 11.1464 15.0994 11.1747C15.1322 11.1841 15.1651 11.2028 15.1933 11.2169C15.2497 11.2451 15.3062 11.2734 15.3767 11.2734C15.4566 11.2781 15.5367 11.2358 15.6119 11.2734C15.5601 11.2781 15.5178 11.3063 15.4755 11.3298C15.4237 11.3581 15.3721 11.3862 15.292 11.3909C15.2027 11.3957 15.1322 11.3722 15.0475 11.3392C15.0427 11.3346 15.038 11.3392 15.0333 11.3439C15.0333 11.3486 15.0333 11.3533 15.0333 11.3533C15.0333 11.4803 15.2638 11.4991 15.3579 11.4803C15.4096 11.4662 15.4708 11.4567 15.5037 11.4662C15.4566 11.4662 15.4143 11.4944 15.3673 11.5179C15.3108 11.5461 15.1933 11.5744 15.0946 11.5744C15.0381 11.5744 14.9817 11.5602 14.9535 11.5273C14.9488 11.5226 14.9346 11.5226 14.9346 11.532C14.9346 11.5415 14.9346 11.5509 14.9392 11.5602C14.944 11.612 14.9911 11.6449 15.0381 11.659C15.0898 11.6731 15.1462 11.6637 15.1886 11.659C15.2545 11.6496 15.3062 11.6449 15.3814 11.659C15.3062 11.6778 15.2451 11.706 15.1792 11.7342C15.0333 11.8 14.8877 11.8471 14.7276 11.8142C14.6242 11.7907 14.5396 11.7295 14.5114 11.6308C14.4925 11.5696 14.4925 11.499 14.5114 11.4333C14.5114 11.4285 14.5114 11.4238 14.5019 11.4238C14.4267 11.4097 14.3514 11.4191 14.2855 11.4473C14.2102 11.4803 14.1444 11.532 14.0881 11.5931C13.9939 11.7013 13.9423 11.8283 13.9234 11.9647C13.9045 12.1152 13.9234 12.2798 13.9704 12.435C14.008 12.5667 14.0692 12.6984 14.1444 12.83C14.2149 12.9663 14.2997 13.0935 14.3796 13.2251C14.4313 13.305 14.4783 13.385 14.5254 13.4649C14.5724 13.5402 14.6148 13.6154 14.657 13.6906C14.7088 13.7753 14.7323 13.8553 14.7465 13.9352C14.7605 14.0105 14.7605 14.0857 14.7605 14.1563C14.7558 14.2974 14.7183 14.429 14.6476 14.5419C14.5771 14.6501 14.4783 14.7442 14.3419 14.8242C14.3326 14.8289 14.3326 14.8382 14.3419 14.8382C14.3842 14.8571 14.4313 14.8664 14.4783 14.8524C14.5206 14.8429 14.5629 14.8194 14.6053 14.7866C14.5583 14.8901 14.4736 14.9606 14.3702 15.003C14.2384 15.0547 14.0785 15.0593 13.914 15.0264C13.9093 15.0264 13.9045 15.0311 13.9045 15.0404C13.9188 15.1109 13.9468 15.1768 13.9893 15.2286C14.0173 15.2615 14.0551 15.2897 14.0973 15.3086C14.1396 15.3226 14.1915 15.3274 14.2431 15.3179C14.3088 15.3039 14.3889 15.2663 14.4689 15.2005C14.5065 15.4591 14.2996 15.572 14.0784 15.6896C14.0504 15.7036 14.0268 15.7178 14.0031 15.7272C13.928 15.7742 13.8528 15.8447 13.8105 15.9248C13.7727 16.0001 13.7538 16.0846 13.7775 16.1646C13.7775 16.1741 13.7869 16.1741 13.7915 16.1693C13.8386 16.1223 13.9044 16.094 13.9751 16.0612C14.0879 16.0093 14.2148 15.9481 14.2995 15.8071C14.3372 15.8684 14.3513 15.9294 14.3417 15.9859C14.3324 16.0564 14.2947 16.1223 14.2382 16.1693C14.0879 16.3057 13.9655 16.3387 13.9044 16.3621C13.8857 16.3669 13.8714 16.3669 13.8622 16.3715C13.8244 16.3903 13.7915 16.4139 13.7538 16.4422C13.7117 16.475 13.674 16.5127 13.641 16.5455L13.6364 16.5503C13.6175 16.588 13.6035 16.6256 13.5987 16.6633C13.5941 16.7006 13.6035 16.7383 13.6223 16.7713C13.6269 16.7759 13.6317 16.7759 13.6364 16.7759C13.6646 16.7572 13.7117 16.7524 13.7586 16.7478C13.7963 16.7431 13.8339 16.7383 13.8668 16.729C13.8433 16.7996 13.8009 16.8512 13.7538 16.8937C13.6975 16.936 13.6316 16.9736 13.5611 17.0066C13.5235 17.0253 13.4764 17.0723 13.4434 17.1287C13.4059 17.1898 13.3777 17.2604 13.3589 17.3357C13.3353 17.4203 13.3541 17.5003 13.3729 17.5755C13.387 17.6273 13.4012 17.679 13.4059 17.7308C13.4059 17.7967 13.3637 17.8483 13.3024 17.8859C13.2272 17.933 13.119 17.9612 13.0249 17.9659C13.0719 17.8718 13.0532 17.8059 13.0391 17.74C13.0295 17.7072 13.0203 17.6743 13.0203 17.6367C13.0203 17.6321 13.0155 17.6273 13.0109 17.6273C12.9684 17.6273 12.9214 17.6836 12.8745 17.74C12.851 17.7685 12.8273 17.7919 12.804 17.8154C12.7287 17.8859 12.6252 17.8907 12.5311 17.8954C12.4935 17.8954 12.4559 17.8954 12.423 17.9048C12.423 17.9002 12.423 17.8954 12.4276 17.8859C12.4512 17.7872 12.4699 17.7167 12.5029 17.665C12.5169 17.6367 12.5451 17.6132 12.5736 17.5897C12.6017 17.5662 12.6346 17.5426 12.6534 17.5097C12.6581 17.5097 12.6581 17.5051 12.6534 17.5003C12.6158 17.411 12.4935 17.4345 12.3666 17.4581C12.3101 17.4674 12.2536 17.4769 12.2066 17.4769C12.2019 17.4297 12.2019 17.3875 12.2113 17.3546C12.216 17.3123 12.2301 17.2841 12.249 17.2699C12.3289 17.1806 12.4464 17.1994 12.5688 17.2181C12.6534 17.2276 12.7428 17.2418 12.8227 17.2181C12.912 17.1477 12.9873 17.0724 13.0532 16.9877C13.1142 16.8983 13.1707 16.8089 13.2131 16.7054C13.2554 16.5833 13.2648 16.475 13.246 16.3951C13.2319 16.3387 13.2083 16.2962 13.1754 16.268V16.2728C13.1378 16.2398 13.0908 16.2257 13.0391 16.2305C12.9638 16.2352 12.8697 16.268 12.7662 16.3339C12.7992 16.0658 12.7098 15.9671 12.578 15.8165C12.5736 15.8119 12.564 15.8024 12.5593 15.7931C12.5217 15.7508 12.4605 15.6849 12.4135 15.6191C12.3619 15.5532 12.3195 15.4874 12.3195 15.4451C12.3195 15.4356 12.3195 15.4214 12.3195 15.4121C12.3148 15.2192 12.3148 15.0923 12.3853 14.9606C12.4135 14.9041 12.4464 14.8524 12.4794 14.8007C12.5123 14.7443 12.5451 14.6926 12.5688 14.6454C12.6064 14.5749 12.6204 14.5138 12.5736 14.4855C12.6064 14.4197 12.5876 14.368 12.5217 14.3256C12.4559 14.2785 12.3429 14.2457 12.1971 14.2127C12.0467 14.1846 11.9432 14.161 11.8444 14.1329C11.7504 14.1046 11.6704 14.067 11.5858 14.0199C11.5012 13.9682 11.4071 13.893 11.3318 13.8131C11.2613 13.7472 11.2096 13.6767 11.1908 13.6203C11.2754 13.5872 11.3459 13.545 11.3977 13.4885C11.4023 13.4837 11.3977 13.4745 11.393 13.4745C11.1955 13.4837 11.012 13.371 10.8522 13.2768C10.7345 13.211 10.6311 13.1499 10.5511 13.1499C10.49 13.1499 10.4289 13.1593 10.3818 13.178C10.3349 13.1969 10.2972 13.2252 10.269 13.2675C10.269 13.2721 10.2737 13.2815 10.2784 13.2815C10.4242 13.2533 10.5041 13.3191 10.5888 13.3944C10.6546 13.4508 10.7251 13.5121 10.8427 13.545C10.7157 13.6107 10.617 13.6296 10.5276 13.6203C10.4335 13.6061 10.3442 13.5543 10.2313 13.4931C10.1467 13.4462 10.0572 13.3992 9.96792 13.385C9.88329 13.3662 9.79863 13.3803 9.72333 13.4463C9.71392 13.4508 9.71862 13.4603 9.72333 13.4603C9.79392 13.4837 9.85507 13.5168 9.90211 13.5543C9.94444 13.592 9.97733 13.6343 9.99618 13.686C9.90681 13.6577 9.8174 13.6296 9.73277 13.6107C9.6434 13.5872 9.55869 13.5732 9.47877 13.5732C9.3847 13.5732 9.29537 13.6061 9.2013 13.6389C9.16367 13.6532 9.12138 13.6625 9.08371 13.6766C8.87674 13.7283 8.81559 13.7754 8.74979 13.8177C8.73567 13.8317 8.7169 13.8459 8.69334 13.86C8.67923 13.8647 8.65575 13.8741 8.63219 13.8788C8.59461 13.893 8.54753 13.9022 8.50524 13.94C8.50053 13.9259 8.50053 13.907 8.49578 13.893C8.49108 13.8177 8.50053 13.7425 8.53812 13.686C8.57109 13.6295 8.6369 13.5825 8.73097 13.5638C8.74974 13.559 8.77326 13.559 8.79203 13.5542C8.80148 13.5542 8.80619 13.5449 8.79678 13.5402C8.68859 13.4131 8.62749 13.4367 8.5146 13.479C8.49104 13.4884 8.45816 13.5026 8.42523 13.512C8.41112 13.5168 8.39705 13.5308 8.38764 13.5496C8.37819 13.5684 8.36878 13.5872 8.36408 13.6061C8.28878 13.4367 8.35467 13.352 8.45815 13.3097C8.57104 13.2675 8.72627 13.2675 8.80619 13.2675C8.81089 13.2675 8.81559 13.2627 8.81559 13.2533C8.78742 13.2016 8.75924 13.1687 8.73097 13.1498C8.698 13.1311 8.66037 13.1263 8.60863 13.1216C8.59922 13.1216 8.58986 13.1169 8.58045 13.1169C8.55698 13.1075 8.52401 13.1027 8.49108 13.1123C8.49578 13.0605 8.50994 13.0182 8.53341 12.99C8.55698 12.9618 8.58986 12.9477 8.6369 12.9477C8.74979 12.9523 8.84386 13.0041 8.94264 13.0606C9.05074 13.1217 9.16363 13.1828 9.31415 13.1828C9.43178 13.1781 9.53518 13.1545 9.63395 13.1123C9.73273 13.0699 9.82676 13.0182 9.92084 12.9524C9.96317 12.9242 9.99614 12.9006 10.0337 12.8771C10.1701 12.7783 10.3018 12.6889 10.4241 12.6514C10.457 12.6844 10.5087 12.6984 10.5746 12.7031C10.6405 12.7031 10.7251 12.6889 10.8239 12.6607C10.8473 12.6514 10.8709 12.6467 10.8945 12.642C11.0074 12.6139 11.1155 12.5854 11.1719 12.5386C11.2377 12.4867 11.2894 12.4351 11.3271 12.3739C11.36 12.3174 11.3835 12.2563 11.3977 12.181C11.3977 12.1762 11.3835 12.1716 11.3788 12.1762C11.2519 12.3174 11.1437 12.341 11.0449 12.3598C10.9932 12.3692 10.9414 12.3832 10.8897 12.4114C10.7862 12.482 10.6922 12.5338 10.6169 12.5619C10.5463 12.5901 10.4899 12.5995 10.4477 12.5901C10.4664 12.4866 10.5041 12.3879 10.5605 12.3127C10.6169 12.2281 10.6922 12.167 10.7768 12.1294C10.8756 12.0822 10.9838 12.0447 11.0826 12.0117C11.3036 11.9365 11.4917 11.8753 11.52 11.7437C11.52 11.739 11.5152 11.7295 11.5106 11.7342C11.3271 11.7907 11.2189 11.7907 11.106 11.7907C11.0543 11.7907 10.9979 11.7907 10.9368 11.8C10.9462 11.7484 10.9839 11.706 11.0496 11.6637C11.1155 11.6214 11.2143 11.5885 11.3178 11.5509C11.3553 11.5367 11.3978 11.5273 11.44 11.5132C11.5671 11.4756 11.7175 11.4333 11.7928 11.3533C11.8257 11.325 11.8398 11.2874 11.8444 11.2545C11.8491 11.2358 11.8491 11.2169 11.8444 11.1981C11.8397 11.184 11.8303 11.1652 11.8162 11.1558C11.8022 11.1416 11.788 11.1322 11.7645 11.1322C11.7269 11.1276 11.6657 11.1416 11.5999 11.1746C11.5387 11.2075 11.4682 11.2545 11.3977 11.311C11.2989 11.2545 11.2237 11.1934 11.1766 11.1276C11.139 11.0664 11.1249 11.0052 11.1484 10.9489C11.4164 10.9865 11.5858 10.9912 11.6892 10.963C11.8021 10.9301 11.8444 10.8689 11.8586 10.7701C11.868 10.7091 11.8444 10.6525 11.7974 10.5961C11.7644 10.5633 11.7269 10.5351 11.6798 10.5115C11.6375 10.488 11.581 10.4692 11.5246 10.4598C11.3647 10.4316 11.1671 10.4739 10.9931 10.629C10.9461 10.6103 10.9179 10.582 10.899 10.5538C10.8849 10.5303 10.8803 10.5021 10.8803 10.4739C10.885 10.4457 10.8944 10.4174 10.9132 10.3987C10.9367 10.3658 10.9697 10.3422 11.012 10.3328C11.0214 10.3281 11.0214 10.314 11.012 10.314C10.9932 10.3093 10.9791 10.3093 10.965 10.3093C10.9085 10.2999 10.8709 10.2951 10.8473 10.281C10.8333 10.2716 10.8333 10.2576 10.8473 10.234L10.8897 10.154C11.0872 10.1024 11.2189 10.0788 11.3224 10.0835C11.4212 10.093 11.487 10.1306 11.5481 10.2059C11.5528 10.2105 11.5575 10.2105 11.5623 10.2105C11.614 10.1682 11.6845 10.1446 11.7504 10.1259C11.8397 10.0929 11.9196 10.0693 11.9526 10.0083C11.9573 10.0035 11.9526 9.99411 11.9479 9.99411C11.8397 10.0083 11.7456 10.013 11.661 10.0177C11.5763 10.0177 11.5105 10.013 11.4541 10.0035C11.4023 9.99411 11.3647 9.96588 11.3459 9.93766C11.3366 9.91893 11.3318 9.90478 11.3318 9.88592C11.3318 9.87181 11.3412 9.85304 11.3506 9.83893C11.3694 9.81075 11.407 9.78718 11.4588 9.78248C11.5058 9.77307 11.5623 9.77778 11.628 9.78248C11.6939 9.7918 11.7692 9.80596 11.8491 9.82007C11.8538 9.82007 11.8585 9.82007 11.8585 9.82007C12.0983 9.64607 12.2535 9.68841 12.4369 9.74015C12.5734 9.77778 12.7333 9.82007 12.9543 9.7918C12.9547 9.79185 12.9501 9.79664 12.9453 9.8013Z" fill="#F3C242"/>
<path fill-rule="evenodd" clip-rule="evenodd" d="M8.54784 10.7654C8.58081 10.7701 8.59959 10.7843 8.61844 10.7983C8.62785 10.8077 8.63721 10.8125 8.64192 10.8172C8.68425 10.8312 8.72658 10.8547 8.75955 10.8877C8.78773 10.9159 8.81121 10.9536 8.83007 10.9958C8.83007 11.0052 8.82532 11.0099 8.82066 11.0099C8.77354 11.0147 8.73599 10.9912 8.69362 10.9629C8.63247 10.9253 8.56657 10.8829 8.44907 10.9253C8.59013 11.2263 8.69362 11.2451 8.94753 11.2874C9.00402 11.3016 9.07449 11.311 9.15449 11.3297C9.24857 11.3485 9.32387 11.3815 9.38023 11.4285C9.41786 11.4567 9.44608 11.4896 9.46024 11.5272C9.47435 11.5649 9.47901 11.6073 9.46964 11.6496C9.46024 11.6966 9.43667 11.739 9.39913 11.7907C9.47435 11.7907 9.56376 11.7671 9.64368 11.7437C9.75657 11.7155 9.85535 11.6919 9.91645 11.7201C9.92116 11.7248 9.92116 11.7342 9.91645 11.739C9.8553 11.7577 9.82238 11.786 9.77538 11.8283C9.71419 11.8848 9.62957 11.96 9.43206 12.0588C9.50253 12.0917 9.56842 12.1009 9.63893 12.0964C9.71415 12.0917 9.78945 12.0635 9.86937 12.0211C9.87878 12.0164 9.89293 12.007 9.91171 11.9976C10.0011 11.9411 10.161 11.8376 10.2739 11.9224C10.2786 11.927 10.2739 11.9411 10.2644 11.9411C10.1422 11.9364 10.081 12.0116 10.0105 12.1009C9.95879 12.1716 9.8976 12.2467 9.79416 12.3079C10.0011 12.3363 10.1563 12.3034 10.2739 12.2327C10.3961 12.1575 10.4855 12.0447 10.5655 11.9224C10.636 11.8095 10.7018 11.753 10.7535 11.706C10.7771 11.6872 10.7958 11.6684 10.81 11.6542C10.7347 11.6355 10.6454 11.6355 10.5607 11.6308C10.476 11.6308 10.3961 11.626 10.3208 11.6166C10.2315 11.5978 10.1468 11.5791 10.0716 11.5509C9.99158 11.5225 9.92107 11.485 9.85522 11.4426C9.72826 11.358 9.63885 11.2734 9.57304 11.1934C9.50244 11.1134 9.46015 11.0334 9.43197 10.9629C9.41782 10.9346 9.40841 10.9065 9.399 10.8829C9.33311 10.7183 9.26726 10.5584 9.02745 10.5866C9.06508 10.6478 9.0933 10.7043 9.11682 10.7559C9.145 10.8171 9.15916 10.8688 9.16382 10.9206C9.16382 10.93 9.14971 10.9346 9.14504 10.9253C9.0839 10.8077 8.99923 10.709 8.91461 10.6618C8.87231 10.6384 8.82998 10.6243 8.79227 10.6196C8.74998 10.6196 8.70769 10.6243 8.67006 10.6477C8.62785 10.6714 8.58547 10.7044 8.54784 10.7654Z" fill="#F3C242"/>
<path fill-rule="evenodd" clip-rule="evenodd" d="M9.43679 15.7037C9.45564 15.7037 9.47912 15.699 9.50264 15.699C9.5215 15.699 9.53561 15.6945 9.54967 15.6945C9.64845 15.6756 9.71896 15.6708 9.76604 15.6897C9.81308 15.7038 9.84135 15.7413 9.84605 15.798C9.84605 15.8025 9.84135 15.812 9.8366 15.812C9.79901 15.812 9.76138 15.8072 9.72371 15.8072C9.63438 15.8025 9.54972 15.8025 9.49332 15.8308C9.43683 15.8544 9.39924 15.892 9.36627 15.9295C9.3333 15.9767 9.31453 16.0284 9.30983 16.0707C9.30512 16.0895 9.30983 16.1129 9.31928 16.1412C9.32398 16.1694 9.3333 16.1976 9.34271 16.2212C9.4039 16.1318 9.47446 16.0755 9.54967 16.0378C9.63434 16.0002 9.72367 15.9954 9.81779 16.0189C9.82719 16.0189 9.82719 16.0284 9.81779 16.0331C9.76134 16.066 9.67672 16.1271 9.61557 16.2071C9.57324 16.2635 9.53556 16.3247 9.5262 16.3858C9.60142 16.3716 9.67197 16.3858 9.73787 16.3952C9.81779 16.4094 9.88838 16.4234 9.93538 16.3812C9.94949 16.367 9.97301 16.3388 9.99657 16.3059C10.0342 16.2588 10.0859 16.1977 10.1329 16.1505C10.1564 16.1318 10.1799 16.1129 10.1988 16.1037C10.2223 16.0941 10.2458 16.0895 10.2646 16.0848C10.4716 16.0755 10.6362 16.0755 10.7537 16.0942C10.862 16.1129 10.9419 16.1413 10.9843 16.179C10.9843 16.1412 10.9702 16.1037 10.9419 16.0707C10.9043 16.0284 10.8431 15.9861 10.7585 15.9484C10.7537 15.9437 10.7537 15.9343 10.7585 15.9296C10.9184 15.8449 11.0877 15.8967 11.257 15.9531C11.4546 16.0189 11.6474 16.0801 11.8308 15.9202C11.7603 15.9156 11.7038 15.8778 11.6474 15.8308C11.5675 15.7697 11.4781 15.6991 11.3276 15.718C11.3229 15.718 11.3182 15.7086 11.3182 15.7038C11.3464 15.6521 11.3887 15.6145 11.4404 15.5863C11.5016 15.5533 11.5722 15.5392 11.6332 15.5392C11.7179 15.5392 11.7932 15.5627 11.8638 15.5863C11.9531 15.6145 12.033 15.638 12.1271 15.6285C12.0283 15.4687 12.0142 15.3088 12.0519 15.1488C12.0895 14.9937 12.1788 14.8384 12.2823 14.6833C12.2118 14.6596 12.1317 14.6691 12.0473 14.7114C11.9626 14.7538 11.8638 14.8291 11.7603 14.9326C11.7556 14.9418 11.7462 14.9326 11.7462 14.923C11.7838 14.8008 11.8356 14.702 11.9014 14.6314C11.9531 14.5656 12.0142 14.5233 12.0895 14.4903C11.9954 14.4856 11.892 14.4903 11.7838 14.5186C11.6569 14.5468 11.5252 14.6032 11.3887 14.688C11.3793 14.688 11.3746 14.6833 11.3746 14.6785C11.384 14.5986 11.4264 14.5374 11.4875 14.4903C11.5487 14.4481 11.6239 14.4105 11.6945 14.3776C11.7461 14.3587 11.7838 14.3304 11.8167 14.3023C11.845 14.2834 11.8685 14.2693 11.892 14.2551C11.8261 14.2504 11.7462 14.2646 11.6569 14.2786C11.591 14.2881 11.5205 14.3023 11.4405 14.3069C11.3982 14.3116 11.3558 14.3116 11.3135 14.3163C11.243 14.3163 11.1677 14.3209 11.0972 14.3304C10.989 14.3539 10.8949 14.4058 10.829 14.481C10.7726 14.5468 10.7444 14.6361 10.7537 14.749C10.7632 14.8572 10.8149 14.937 10.862 15.0171C10.9231 15.1111 10.9843 15.2053 10.9749 15.3557C10.9654 15.4968 10.8855 15.5815 10.7773 15.6285C10.6738 15.6756 10.5422 15.6849 10.4293 15.6849C10.3634 15.6849 10.2976 15.6803 10.2412 15.6755C10.1847 15.6661 10.133 15.652 10.0953 15.638C10.0531 15.6192 10.0154 15.6002 9.97775 15.5768C9.91661 15.5438 9.8555 15.5062 9.77088 15.4968C9.69557 15.4921 9.61565 15.5062 9.55446 15.5486C9.50259 15.5862 9.4603 15.638 9.43679 15.7037Z" fill="#F3C242"/>
<path fill-rule="evenodd" clip-rule="evenodd" d="M10.194 10.7138C10.2174 10.7843 10.2645 10.8407 10.3303 10.8783C10.4103 10.9301 10.5137 10.9582 10.6125 10.9582C10.7113 10.9536 10.8195 10.9112 10.9417 10.8595C11.1157 10.7843 11.3086 10.6996 11.5484 10.709C11.2709 10.6432 11.0452 10.7043 10.8571 10.756C10.763 10.7843 10.6784 10.8078 10.6031 10.8078C10.4997 10.8125 10.415 10.8031 10.3492 10.7843C10.2833 10.7654 10.2363 10.742 10.194 10.7138Z" fill="#F3C242"/>
<path fill-rule="evenodd" clip-rule="evenodd" d="M12.6866 14.8007C12.6912 14.7961 12.7008 14.8007 12.7008 14.8101C12.6819 14.876 12.6678 14.9418 12.6584 15.0123C12.6489 15.0782 12.6489 15.1487 12.6489 15.2193C12.6536 15.3557 12.696 15.4451 12.7383 15.5345C12.7901 15.6426 12.8371 15.7461 12.8042 15.9201C12.8042 15.9248 12.7901 15.9295 12.7853 15.9201C12.7337 15.7932 12.6772 15.7085 12.6302 15.6332C12.5691 15.5345 12.5172 15.4592 12.4986 15.3323C12.489 15.2664 12.5032 15.1582 12.5408 15.05C12.5738 14.9559 12.6254 14.8665 12.6866 14.8007Z" fill="#008057"/>
<path fill-rule="evenodd" clip-rule="evenodd" d="M11.8119 13.9353C11.8589 13.9918 11.9341 14.0342 12.0094 14.0623C12.0939 14.0953 12.1929 14.1093 12.2821 14.1047C12.489 14.0953 12.5925 14.0153 12.6912 13.94C12.7101 13.926 12.7289 13.9119 12.7478 13.9023C12.7523 13.8976 12.7478 13.8836 12.7383 13.8836C12.5738 13.926 12.4137 13.9494 12.2539 13.9542C12.0986 13.9589 11.9576 13.9494 11.8212 13.9212C11.8119 13.9213 11.8025 13.9308 11.8119 13.9353Z" fill="#008057"/>
<path fill-rule="evenodd" clip-rule="evenodd" d="M11.4121 13.6908C11.4686 13.7426 11.5438 13.7802 11.6284 13.8084C11.7131 13.8366 11.8025 13.8507 11.8965 13.8507C12 13.846 12.1034 13.8178 12.1929 13.7754C12.2821 13.7283 12.3574 13.6625 12.3998 13.592C12.4044 13.5826 12.3951 13.5732 12.3856 13.578C12.3151 13.6249 12.221 13.6626 12.1269 13.6861C12.0282 13.7143 11.9295 13.7331 11.8307 13.7378C11.7602 13.7426 11.6896 13.7378 11.6191 13.7283C11.5532 13.719 11.4874 13.7001 11.4263 13.6719C11.4167 13.672 11.4074 13.6815 11.4121 13.6908Z" fill="#008057"/>
<path fill-rule="evenodd" clip-rule="evenodd" d="M11.0218 13.1264C11.0876 13.1264 11.1487 13.1734 11.2146 13.2252C11.3322 13.3098 11.4639 13.4133 11.6896 13.3333C11.6943 13.3287 11.6943 13.3192 11.6896 13.3146C11.6238 13.291 11.5626 13.2487 11.5015 13.2111C11.3651 13.117 11.2241 13.0183 11.0171 13.1076C11.0123 13.1124 11.0123 13.1264 11.0218 13.1264Z" fill="#008057"/>
<path fill-rule="evenodd" clip-rule="evenodd" d="M11.7178 13.0699C11.8354 12.9712 11.9435 12.9571 12.0423 12.943C12.1175 12.9336 12.1834 12.929 12.2539 12.8914C12.3951 12.8161 12.489 12.7219 12.5267 12.5996C12.5596 12.4821 12.5361 12.3316 12.4327 12.1529C12.4279 12.1435 12.4138 12.1529 12.4138 12.1623C12.4419 12.2516 12.4373 12.3411 12.4091 12.421C12.3762 12.5057 12.3151 12.5855 12.2351 12.6374C12.174 12.6797 12.1082 12.7127 12.0423 12.7503C11.8871 12.8349 11.7367 12.9101 11.699 13.0607C11.699 13.0699 11.7084 13.0746 11.7178 13.0699Z" fill="#008057"/>
<path fill-rule="evenodd" clip-rule="evenodd" d="M11.0311 12.9148C11.1534 12.8537 11.2569 12.8443 11.3604 12.8301C11.4544 12.8209 11.5532 12.8066 11.666 12.7596C11.779 12.7079 11.8824 12.6232 11.9341 12.5057C11.9765 12.407 11.9812 12.2846 11.9247 12.1388C11.9247 12.134 11.9106 12.134 11.9106 12.1388C11.8025 12.3975 11.6567 12.4634 11.4638 12.5433C11.4121 12.5621 11.3604 12.5855 11.3039 12.6139C11.2145 12.6561 11.1251 12.7127 11.0687 12.769C11.0217 12.8162 10.9982 12.863 11.0171 12.9101C11.017 12.9148 11.0264 12.9196 11.0311 12.9148Z" fill="#008057"/>
</svg>
